<svg xmlns="http://www.w3.org/2000/svg" viewBox="0 0 84.43 104"><defs>
<style>.cls-1{fill:#48B344;}</style></defs><title>Asset 186</title><g id="Layer_2" data-name="Layer 2">
<g id="Layer_1-2" data-name="Layer 1">
<path class="cls-1" d="M54.58,27.85c1.54-1.83,3.55-2,5.39-2.39,5.66-1.36,10.76-.73,14.64,4.22,1.15,1.47,2.56,2.73,3.71,4.19,4.5,5.77,7.05,12.16,5.79,19.61-.14.85-.83,2.18-1.41,2.26a3.72,3.72,0,0,1-2.93-1,12.28,12.28,0,0,1-2.31-4.19c-1.58-4.89-4.88-8.63-8-12.47a3.45,3.45,0,0,0-1.9-1.1c-2.38-.37-4-1.9-5.69-3.36s-3.67-2.78-5.49-4.19C55.76,29,55.25,28.46,54.58,27.85Z" />
<path class="cls-1" d="M0,50c0-8,3.63-14,8.79-19.3.44-.44.87-.89,1.32-1.32,5.88-5.68,11.19-6.59,18.71-3.2,2.13,1,2.21,1.64.34,3-2.71,2-5.42,4-8.17,5.88a5.76,5.76,0,0,1-2.36,1A7.36,7.36,0,0,0,14,39c-3.08,3.61-6,7.27-7.65,11.84A8,8,0,0,1,4,54.1C2.19,55.59.43,54.78.13,52.49,0,51.57,0,50.63,0,50Z"/>
<path class="cls-1" d="M50,16c-.08.64-.27,1.62-.33,2.61a38,38,0,0,0-.09,4.77c.14,2-.42,2.76-2.38,2.35a25.46,25.46,0,0,0-10.36-.15c-2,.4-2.15-.06-2.1-2.11a25.24,25.24,0,0,0-.39-5.7,15.66,15.66,0,0,1,1.4-10.86c.83-1.59,1.5-3.28,2.39-4.84,1.34-2.39,3.26-2.73,5.13-.75C47.09,5.31,50,9.83,50,16Z"/>
<path class="cls-1" d="M65.76,78.47c7.67,8.38,4.22,22-6.65,24.65-.76-3.11-1.13-6.23,0-9.3.44-1.24.41-2.15-.59-3a2,2,0,0,1-.22-3.11c.81-1,1.74-1.94,2.56-3C62.48,82.71,64.09,80.61,65.76,78.47Z"/>
<path class="cls-1" d="M26.35,104c-9.74-4.34-15.68-14.58-6.79-24.62,2.34,2.76,4.74,5.54,7.07,8.37,1.46,1.77,1.34,2.29,0,4.19a3.05,3.05,0,0,0-.33,2.33C27.31,97.47,27,100.61,26.35,104Z"/>
<path class="cls-1" d="M39.79,56.3c-1.08-.15-2.47.08-3.19-.51a32,32,0,0,1-4.24-4.67c-.2-.25.06-1.12.36-1.5C34,48,35.2,46,36.9,44.91c1.44-.94,3.52-1,5.34-1.19a5.59,5.59,0,0,1,5.66,2.45A26.8,26.8,0,0,0,51,49.61c.84.86.58,1.43-.06,2.37C48.21,56.08,44,55.94,39.79,56.3Z"/>
<path class="cls-1" d="M59.61,62.27c-1.11,0-2.23,0-3.35,0s-2.63.24-3.38-.35a29.66,29.66,0,0,1-4.12-4.53,1.07,1.07,0,0,1,.08-1c2.07-2.23,3.74-5,7.41-5a55.77,55.77,0,0,0,6.66-.72c1.14-.15,1.86.27,2,1.41.21,2.77.41,5.54.46,8.31,0,1.29-.7,2-2.17,1.86a34.8,34.8,0,0,0-3.54,0Z"/>
<path class="cls-1" d="M45.58,57.14a7.33,7.33,0,0,1,1.86,1c1.37,1.35,2.62,2.82,4,4.22.89.93.59,1.6-.31,2.3a20.22,20.22,0,0,1-9.93,3.93c-4.51.6-4.5.71-6.38-3.42a5.21,5.21,0,0,1,1.36-6.71,2.69,2.69,0,0,1,1.51-.57c2.6-.18,5.21-.28,7.82-.41Z"/>
<path class="cls-1" d="M47.44,68.73c3.14-2.53,5.84-5.36,10.22-4.94a50,50,0,0,0,5.61.05c1.2,0,1.71.64,1.32,1.64-1.19,3-2.46,6-3.87,8.86-.22.46-1.36.7-2,.65-1.23-.09-2.44-.71-3.65-.7C51.08,74.32,49.71,71.14,47.44,68.73Z"/>
<path class="cls-1" d="M20.36,56.37c.18-5.22.21-4.85,5.29-5.34,4.34-.43,6.46,2.18,8.76,4.84a2.19,2.19,0,0,1,.1,2,20.36,20.36,0,0,1-2.6,3.41,2.73,2.73,0,0,1-1.6.78c-2.48.24-5,.36-7.45.55-1.2.1-1.9-.36-2-1.61C20.69,59.47,20.52,57.92,20.36,56.37Z"/>
<path class="cls-1" d="M53.87,50.29a7.5,7.5,0,0,1-1.37-.95c-.69-.72-1.27-1.53-1.89-2.3-2.86-3.53-2.86-3.53-.48-7.25s2.73-3.78,6.32-1.35a16.28,16.28,0,0,1,6.44,8.23c.43,1.23.16,1.89-1.14,2.13C59.19,49.27,56.63,49.77,53.87,50.29Z"/>
<path class="cls-1" d="M32.1,35.7a17.25,17.25,0,0,1,2.77-1.44,23.5,23.5,0,0,1,14.66.52c1.4.49,1.6,1.23.82,2.35-1.07,1.54-2.13,3.08-3.31,4.52a2.23,2.23,0,0,1-1.58.65c-2.42,0-4.85-.06-7.27-.17a1.92,1.92,0,0,1-1.3-.54C35.32,39.75,33.83,37.85,32.1,35.7Z" />
<path class="cls-1" d="M26.2,49.78H26c-4.82,0-4.92,0-3.36-4.51,1.18-3.41,3.07-6.37,6.41-8.16,1.13-.61,1.9-.77,2.74.56a34.76,34.76,0,0,0,3.42,4.17,1.36,1.36,0,0,1,0,2.1,20.42,20.42,0,0,0-2.46,3.27,4.51,4.51,0,0,1-4.89,2.56,13.44,13.44,0,0,0-1.68,0Z"/>
<path class="cls-1" d="M35.6,71.05a8.67,8.67,0,0,0-1.08.4c-2.17,1.07-4.3,2.26-6.54,3.18A2.31,2.31,0,0,1,25.85,74c-1.42-2.61-2.65-5.32-3.87-8-.48-1-.24-1.77,1.13-1.86,2.55-.16,5.09-.41,7.63-.67A1.93,1.93,0,0,1,33,64.81C33.74,66.66,34.54,68.49,35.6,71.05Z"/>
<path class="cls-1" d="M43.07,78.92c-2.09,0-7.36-3.58-8-5.48A1.66,1.66,0,0,1,35.64,72,16.54,16.54,0,0,1,39,70.54c1-.29,2.08-.32,3.12-.52,3.82-.75,5.68,0,7.55,3.35.18.33.16,1.12-.06,1.28-2,1.45-4.07,2.82-6.12,4.2A1,1,0,0,1,43.07,78.92Z"/>
<path class="cls-1" d="M44.75,79.47c1.79-1.31,3.57-2.65,5.39-3.93a2.18,2.18,0,0,1,1.37-.46c2.43.36,4.85.81,7.63,1.3-1.8,2.56-3.52,4.7-6,6.05a3,3,0,0,1-2.14.06c-2.14-.71-4.23-1.58-6.34-2.39Z"/>
<path class="cls-1" d="M40.54,80.18c-1.36.82-2.86,1.8-4.43,2.63a2.14,2.14,0,0,1-1.54-.12,13.16,13.16,0,0,1-6.43-6.49c1.61-.85,3.21-1.75,4.87-2.52.29-.13.92.18,1.23.46C36.3,76.06,38.31,78,40.54,80.18Z"/>
<path class="cls-1" d="M36.9,84c1.66-1.09,3.16-2.18,4.77-3.08a2.57,2.57,0,0,1,1.91,0c2.37.91,4.69,1.95,7,2.93C45.79,88.51,42,90,36.9,84Z"/>
<path class="cls-1" d="M42.47,27c4.07-.06,5,.78,5,3.87,0,1-.33,1.23-1.36,1.18-2.47-.13-5-.11-7.41,0-1.76.08-2.14-.38-1.53-2C38.19,27.2,40.46,26.84,42.47,27Z"/>
<path class="cls-1" d="M18.79,66.69c1.17-.21,2,.34,2.4,1.71a19.9,19.9,0,0,0,.95,2.42c.43,1,1.1,1.92-.59,2.63-2.57,1.08-2.82,1.16-3.86-.54a21.33,21.33,0,0,1-1.45-2.59C15.06,67.62,15.64,66.74,18.79,66.69Z"/>
<path class="cls-1" d="M42.56,92.68c0,.87,0,1.74,0,2.61,0,1.09-.61,1.39-1.61,1.16a4.12,4.12,0,0,1-3.09-5.81c.57-1.35,1.26-2.44,3-2.08s2.2,1.57,1.87,3.19c-.06.31,0,.62-.08.93Z"/>
<path class="cls-1" d="M38.45,87.77c-.85,1.11-1.45,2.4-2.46,3-.59.35-1.88-.28-2.77-.67a5.69,5.69,0,0,1-1.52-1.35c-.8-.86-1.47-1.81-.54-3s1.91-2,3.48-1c.82.55,1.75,1,2.56,1.51A8.59,8.59,0,0,1,38.45,87.77Z"/>
<path class="cls-1" d="M32,82.58c.06,1.89-2.65,3.61-3.74,2.78a21,21,0,0,1-3.38-3.59,1.51,1.51,0,0,1,.29-1.42c.85-.66,2.31-1.79,2.71-1.52A31.35,31.35,0,0,1,32,82.58Z"/>
<path class="cls-1" d="M14.14,61.58c-.35-1.73.8-2.15,2.26-2.24,2.27-.14,3.13.86,3.31,3.84.12,1.91-.83,2.72-3.44,2.91C14.75,66.21,14.33,65.33,14.14,61.58Z"/>
<path class="cls-1" d="M43.48,96.67c.28-2.42.53-4.25.71-6.09a2.09,2.09,0,0,1,2.26-2,3.56,3.56,0,0,1,2.26,1.09,2,2,0,0,1,0,2.86,31.7,31.7,0,0,1-2.88,3.13A9.26,9.26,0,0,1,43.48,96.67Z"/>
<path class="cls-1" d="M19.07,55c-.12,3.61-.34,3.87-3.22,3.32a2.42,2.42,0,0,1-1.46-1.47,5.4,5.4,0,0,1,0-2.4c.19-1.4.46-2.79,2.44-2.56s2.24.7,2.24,2.9Z"/>
<path class="cls-1" d="M23.38,72.88c1.3,1.77,2.72,3,3,4.39.14.69-1.72,2-2.9,2.66-.81.44-3.86-2.65-3.41-3.64C20.61,75.11,22,74.29,23.38,72.88Z"/>
<path class="cls-1" d="M58.82,38.1c-1.62.07-5-2.55-5-3.69a2.63,2.63,0,0,1,.89-1.88,2.29,2.29,0,0,1,2-.27A15.47,15.47,0,0,1,60,34.62a1.75,1.75,0,0,1,.24,1.62A9.37,9.37,0,0,1,58.82,38.1Z"/>
<path class="cls-1" d="M48.35,28.94a4.2,4.2,0,0,1,1.56-.66c2.22,0,4,1.23,3.82,2.69-.13,1.26-.73,2.31-2.16,2.38C49.58,33.46,48.31,31.89,48.35,28.94Z"/>
<path class="cls-1" d="M54.28,83.32C55.67,82,57,80.69,58.5,79.48c.35-.28,1.42-.31,1.59-.07.36.53.7,1.6.42,1.93a15.89,15.89,0,0,1-3.61,3.39c-.51.32-1.7-.42-2.57-.67Z"/>
<path class="cls-1" d="M42.52,103.17l-2.71-5.72h6C45.66,99.73,44.49,101.45,42.52,103.17Z"/>
<path class="cls-1" d="M17.5,50.64c-1.1,0-2.15-.07-2.12-1.66,0-1.77,1-3.7,2-3.49s2.74-.2,2.78,1.72C20.21,49.64,19.41,50.64,17.5,50.64Z"/>
<path class="cls-1" d="M66.18,74.53C65,76.18,63.9,77.68,62.71,79c-.18.21-1.23,0-1.57-.37A2,2,0,0,1,60.55,77a10.49,10.49,0,0,1,2.09-3.24c.45-.43,1.54-.3,2.33-.23C65.31,73.54,65.62,74,66.18,74.53Z"/>
<path class="cls-1" d="M32.07,33.16c-.12.17-.25.56-.53.74a22.49,22.49,0,0,1-3.82,2.27c-.49.21-1.47-.3-2-.76-.2-.18.1-1.34.5-1.66a20.21,20.21,0,0,1,3.43-2.2A1.7,1.7,0,0,1,32.07,33.16Z"/>
<path class="cls-1" d="M63.67,44.31a8.22,8.22,0,0,1,1.78-1.62c.3-.17,1.2.38,1.57.82a12.1,12.1,0,0,1,1.8,2.79,1.54,1.54,0,0,1-.42,1.43C66.51,48.74,63.72,47,63.67,44.31Z"/>
<path class="cls-1" d="M53,84.72c1.6.4,2.4,1.61,1.63,2.6a12.4,12.4,0,0,1-2.79,2.62,1.87,1.87,0,0,1-1.79-.25c-.42-.45-.79-1.63-.53-1.92A32.74,32.74,0,0,1,53,84.72Z"/>
<path class="cls-1" d="M70.65,57.88c-.06.56.08,1.29-.22,1.63a5,5,0,0,1-2.28,1.76c-1.25.24-1.33-1-1.4-2a7.21,7.21,0,0,1,.12-1.85c.26-1.37,1.18-2.19,2.51-1.79.67.21,1.09,1.23,1.63,1.88Z"/>
<path class="cls-1" d="M70.2,51.9c-.26.9.59,2.76-1.77,2.62-1.64-.1-2.16-1-2.08-3.32.05-1.4.64-2.12,2.17-2.09C70.44,49.14,70.31,50.38,70.2,51.9Z"/>
<path class="cls-1" d="M65,41.64a6.9,6.9,0,0,1-2.14,1.06c-1.12.15-3.09-2.12-2.75-3.22A3.21,3.21,0,0,1,62,37.64C63,37.33,65.06,39.87,65,41.64Z"/>
<path class="cls-1" d="M69.3,62.27c.2.31.85.88.91,1.51.15,1.66-1.09,3.44-2.2,3.39s-2-.51-1.9-2C66.24,63.19,67,62.24,69.3,62.27Z"/>
<path class="cls-1" d="M65.74,72.61c-2-.14-2.28-.65-1.79-2.24.78-2.49,1.55-3.17,3-2.45.44.22,1,1.26.79,1.61C67.23,70.7,67.23,72.45,65.74,72.61Z"/>
<path class="cls-1" d="M18.93,44.89l-2-1.53a30.94,30.94,0,0,1,2.62-3.07,3.53,3.53,0,0,1,1.79,1.41C21.76,42.7,20.15,44.55,18.93,44.89Z"/>
<path class="cls-1" d="M25.67,36.86c0,1.43-2.23,3.81-3.07,3.5-.64-.24-1.06-1-1.58-1.59a43.45,43.45,0,0,1,3.29-2.94C24.45,35.72,25.33,36.59,25.67,36.86Z"/>
<path class="cls-1" d="M33.92,32.48c-.49-.43-1.13-.76-1.41-1.29a1.54,1.54,0,0,1,.24-1.46c.94-.8,1.58-2.5,3.27-1.65.71.35,0,2.83-1,3.82A5,5,0,0,1,33.92,32.48Z"/></g></g></svg>