<?xml version="1.0" encoding="UTF-8" standalone="no"?>
<svg
   xmlns:dc="http://purl.org/dc/elements/1.1/"
   xmlns:cc="http://creativecommons.org/ns#"
   xmlns:rdf="http://www.w3.org/1999/02/22-rdf-syntax-ns#"
   xmlns:svg="http://www.w3.org/2000/svg"
   xmlns="http://www.w3.org/2000/svg"
   id="svg8"
   version="1.1"
   viewBox="0 0 1000 1000"
   height="1000"
   width="1000">
  <defs
     id="defs2" />
  <metadata
     id="metadata5">
    <rdf:RDF>
      <cc:Work
         rdf:about="">
        <dc:format>image/svg+xml</dc:format>
        <dc:type
           rdf:resource="http://purl.org/dc/dcmitype/StillImage" />
        <dc:title></dc:title>
      </cc:Work>
    </rdf:RDF>
  </metadata>
  <g
     transform="translate(0,-122.51965)"
     id="layer1">
    <path
       id="path901"
       d="m 471.73803,173.47767 c -1.02663,-0.0376 -1.76485,0.17811 -2.16934,0.58938 -1.16993,1.18933 7.7e-4,3.75052 2.18692,7.65687 2.24023,4.00288 5.21828,8.9665 7.50883,15.20589 1.30913,3.44784 2.28054,7.04347 3.01465,10.9323 0.92763,4.91407 1.3908,9.8855 1.7506,14.61654 -1.25109,-3.53787 -2.92822,-7.21884 -5.15637,-10.91474 -1.35677,-2.23546 -2.85569,-4.40096 -4.4843,-6.47562 -6.43559,-8.1981 -14.16168,-14.1098 -21.16496,-17.70637 -9.07812,-4.68267 -15.30171,-4.85728 -16.47484,-2.72366 -1.27729,2.3226 2.4666,6.80061 8.61237,13.3525 4.92422,5.27422 10.27989,10.79091 15.62721,17.59853 0.95408,1.21465 1.86668,2.43527 2.7613,3.66164 -4.8541,-5.58553 -11.15537,-11.18143 -18.87261,-15.95078 -0.45945,-0.28546 -0.92069,-0.56568 -1.38682,-0.84268 -8.89345,-5.28459 -18.19256,-8.52263 -26.97341,-9.68331 -15.27678,-1.98217 -23.47208,2.62748 -23.32672,5.04857 0.18619,3.10149 8.42078,4.45185 20.01365,8.83562 6.99328,2.62083 13.85993,5.92493 21.5963,10.48086 0.39807,0.23442 0.79689,0.46975 1.19382,0.70725 6.09941,3.67409 11.15601,7.22171 15.7827,10.65391 -7.25188,-3.59824 -15.67972,-6.34938 -25.09491,-8.12586 -2.5326,-0.47981 -5.08896,-0.88794 -7.65689,-1.2239 -16.30302,-2.13295 -31.65313,-1.18556 -42.52036,0.86275 -9.931,1.8646 -15.23877,4.44705 -15.09303,6.5659 0.15101,2.19558 5.7278,3.77725 15.42407,5.08117 1.44756,0.19578 2.99796,0.38654 4.60474,0.57181 -1.9644,0.2678 -3.94729,0.58763 -5.9515,0.98063 -0.59067,0.11583 -1.17968,0.23756 -1.76805,0.36366 -8.86354,1.91804 -17.74775,5.0414 -24.59836,7.25309 -11.19082,3.62505 -18.29798,5.58169 -24.81139,8.8281 -4.52769,2.25646 -6.64515,4.25811 -6.3127,5.6254 0.33913,1.39415 3.11481,2.11415 8.03055,2.32992 5.34168,0.23459 15.91639,-0.0774 26.71505,-1.95121 4.14015,-0.72227 8.36017,-1.69141 12.5675,-2.68606 -0.4809,0.77302 -0.88808,1.63889 -1.13861,2.64091 -0.4145,1.687 -0.41772,3.55116 0.17554,5.46741 0.0501,0.13216 0.1078,0.25655 0.1605,0.38623 -2.44888,0.15482 -4.91779,0.34092 -7.40096,0.57682 -2.3771,0.22582 -4.75048,0.48934 -7.10768,0.79253 -7.34395,0.9188 -14.30152,2.27798 -20.91149,4.7075 -8.47934,3.15392 -14.54562,7.59863 -18.07763,11.28341 -3.56309,3.71724 -4.525,6.53007 -3.65413,7.66439 1.80311,2.34849 11.40218,-2.32765 25.69432,-4.76767 5.8878,-1.03589 11.37805,-1.41026 18.76476,-2.07661 2.28105,-0.19758 4.59716,-0.40795 6.90441,-0.627 0.71973,-0.0684 1.43073,-0.14769 2.14944,-0.21819 0.38689,0.0816 0.81013,0.1549 1.15104,0.25079 2.67438,0.75208 3.67866,2.09031 3.30306,3.38578 -0.37546,1.29547 -2.13107,2.54905 -5.85364,3.51117 -1.634,0.42231 -3.64423,0.80459 -5.61287,1.27656 -5.78404,-0.0273 -12.5766,0.1724 -19.70522,0.28592 l -0.81,0.0128 c -5.97138,-0.0457 -12.61821,0.28473 -19.35671,2.982 -7.23905,3.29513 -11.8009,8.74148 -13.24717,10.57366 -1.47066,1.86663 -2.27334,3.3471 -1.89351,4.56202 0.36456,1.16594 1.92627,2.0783 4.76025,2.09918 3.99081,0.027 10.12284,-2.60002 14.92751,-3.03967 3.63859,-0.65135 8.6134,0.0351 14.98015,-0.13042 0.3037,-10e-4 0.60905,-0.002 0.91286,-0.008 0.46677,-0.008 0.91915,-0.04 1.38194,-0.0552 -1.22964,0.77538 -2.47854,1.58703 -3.73939,2.43526 -6.50262,4.37432 -13.12221,9.3379 -19.80306,11.05268 -6.68085,1.71478 -13.41833,0.17995 -18.14775,1.47971 -4.72955,1.29976 -7.44899,5.43717 -9.3999,10.22505 -1.95105,4.78788 -3.13318,10.22647 -8.57232,14.48358 -2.94582,2.30566 -7.13015,4.25383 -11.35119,6.07185 -2.80703,0.1904 -6.16774,0.55965 -9.64068,1.31418 -3.30178,0.7192 -6.64425,1.75563 -9.92651,3.09736 -8.52698,3.48557 -15.43344,8.54454 -19.763,13.50547 -1.75894,2.01559 -2.9489,3.85495 -3.67415,5.45737 -0.0899,0.0319 -0.1817,0.0629 -0.26581,0.11032 -1.53358,0.86506 -1.78167,5.66909 2.5882,12.78069 3.58851,5.76975 9.12511,11.26222 16.52505,16.63043 4.44603,3.27203 9.28331,6.39528 14.39333,9.25445 10.34769,5.78963 20.63927,9.83206 29.4413,12.13363 0.61701,0.26097 1.23914,0.50486 1.82572,0.71979 1.93665,0.70958 3.38819,1.24221 4.12564,1.90607 0.50978,0.45891 0.67774,1.01928 0.83273,2.09918 -0.99286,4.25115 -1.95657,9.49928 -3.06987,15.21593 0,0.023 -0.4814,2.45741 -0.48653,2.4804 -0.87421,4.44786 -1.74932,8.66088 -2.48036,12.48473 -1.4564,-1.92144 -3.38228,-4.17845 -5.92888,-6.75901 -7.3234,-7.42127 -19.88345,-17.50943 -37.84795,-24.99708 -16.76235,-7.02553 -38.50144,-11.62749 -61.75664,-7.81235 -15.24662,2.62536 -29.83782,8.67664 -43.05198,17.38282 -7.88725,5.19659 -15.11807,11.22865 -21.57869,17.80919 -7.14365,7.27389 -14.19752,16.1789 -20.748548,24.9795 -5.853897,0.96486 -10.835513,2.39005 -14.56386,4.00275 -4.582907,1.98117 -6.735551,3.99264 -6.4605,5.49499 0.282628,1.54423 2.976643,2.53289 7.674347,3.21774 1.137702,0.16648 2.402013,0.31752 3.761991,0.46147 -0.04109,0.0574 -0.08219,0.11329 -0.123273,0.17055 -17.22359,2.51294 -29.209774,6.43125 -28.954626,9.98678 0.178231,2.48405 6.32734,4.28245 15.930643,5.15641 -3.496955,0.84511 -6.857026,1.74859 -10.021787,2.70361 -15.552865,4.6932 -24.215702,9.76481 -23.550032,12.49226 0.585545,2.39918 7.810718,2.85728 19.534691,2.03147 -7.450788,3.00661 -14.017353,6.44394 -19.028118,9.83882 -5.705327,3.86557 -8.7716,7.23854 -9.01365,9.41746 -1.463218,0.3384 -2.991282,0.68192 -4.296171,1.01072 -7.858613,1.98004 -12.423929,3.87124 -12.447171,6.08187 -0.02184,2.11482 4.528076,4.41427 13.041575,5.56772 1.025344,0.1388 2.104619,0.24797 3.202642,0.34611 -0.405001,0.62667 -0.545608,1.07434 -0.366093,1.33173 0.05264,0.0759 0.143817,0.12738 0.253222,0.16803 -5.218787,1.99094 -9.624106,3.77051 -10.82935,4.27611 -4.163011,1.76148 -6.522136,3.11475 -6.47822,4.58459 0.04109,1.37936 2.498064,2.86894 7.451301,3.54379 8.155366,1.08827 16.286978,-0.35265 28.289983,-2.41268 0.444551,0.15094 0.738735,0.25864 1.203832,0.41632 -6.500821,2.6741 -11.943809,5.60465 -16.02605,8.42682 -5.308802,3.67183 -7.554415,6.60903 -6.874362,8.06318 0.70689,1.51122 4.307343,1.49303 10.385569,0.48403 8.963828,-1.48766 23.421623,-4.87485 39.031758,-7.4487 0.572703,0.22407 1.170958,0.46746 1.750596,0.69722 -2.699537,0.99418 -4.391322,2.15939 -4.597161,3.67168 -0.249241,1.8305 1.848701,4.05244 6.325157,5.87119 4.030878,1.63774 9.672515,2.7829 16.231633,2.85157 -4.056945,2.43211 -5.884073,4.73218 -5.429763,6.13202 0.712797,2.19684 5.997714,2.45405 14.581455,2.2923 3.83159,-0.0772 9.91148,-0.24736 16.12133,-0.72482 0.78676,0.41917 1.53872,0.799 2.33485,1.22892 0.1993,0.10791 0.42131,0.23211 0.62201,0.34109 -6.17953,3.01606 -9.4275,5.67234 -8.9886,7.58414 0.5135,2.23683 6.06448,3.25386 15.40648,2.66096 2.96919,-0.17363 6.42428,-0.55667 10.11976,-1.16871 1.54501,0.83221 3.10697,1.65865 4.68242,2.48039 -1.38464,2.35802 -2.42833,4.49022 -3.03468,6.27247 -0.93533,2.75542 -0.87934,4.56056 0.0231,5.28933 0.91324,0.7379 2.65189,0.38746 5.14637,-0.89534 2.16393,-1.11492 5.06186,-3.06634 8.3716,-5.47995 0.64924,0.30048 1.29551,0.61331 1.94629,0.90538 1.25764,0.57044 2.54801,1.10546 3.83467,1.64524 0.0476,0.0758 0.0796,0.16273 0.13547,0.23324 0.54137,0.67829 1.56056,1.05343 2.94185,1.0333 5.15484,2.01553 10.51911,3.74934 16.07112,5.03101 5.47701,1.26437 11.10131,2.08699 16.84106,2.33744 16.09975,0.49739 31.22219,-3.60586 44.25093,-9.19928 14.04393,-5.9747 27.56229,-14.15544 37.81277,-20.21686 11.63704,-6.86614 21.51411,-12.58952 29.39609,-17.25743 2.56459,-1.026 5.76723,-2.49307 8.73783,-3.54879 3.46871,-1.23275 6.56285,-1.86183 9.73852,-1.77816 3.17568,0.0837 6.4388,0.87992 9.32221,2.53055 2.8833,1.65063 5.39292,4.15906 7.69195,6.39536 0.26426,0.25702 0.50234,0.47389 0.75735,0.71728 5.46186,6.74859 11.38395,15.21195 16.34707,25.60651 5.34065,11.11911 9.15298,23.58534 11.71987,37.50938 0.67466,3.71032 1.248,7.50535 1.81326,11.39126 0.37084,2.55025 0.73616,5.09526 1.11343,7.63933 -0.90964,4.54152 -1.71361,11.98187 -3.62151,19.7328 -1.63439,6.64019 -4.09753,13.48322 -7.94529,21.7367 -9.00582,11.06686 -23.13939,30.8494 -40.0173,58.41593 -13.20503,21.36488 -29.5991,50.1029 -34.03332,82.6882 -1.42443,11.2726 -1.33557,22.63772 -0.0758,33.88285 0.78959,7.0458 2.03386,13.99311 3.62896,20.78364 4.26202,18.23445 10.76348,35.41787 17.51328,51.12022 21.5656,50.201 45.05092,86.4664 57.79895,102.9325 1.95515,2.0713 3.64938,3.7912 5.0837,5.164 3.5939,2.924 5.66103,4.1222 6.20728,3.6291 0.11556,-0.1052 0.14908,-0.3029 0.1284,-0.5594 1.29924,1.2788 2.35297,2.0524 3.16502,2.3374 3.09325,1.0863 2.92566,-4.429 1.25405,-14.1248 -1.67175,-9.6959 -4.84911,-23.5766 -10.53351,-37.0354 -5.68452,-13.4587 -13.87815,-26.50209 -16.80355,-32.77177 -2.92542,-6.2697 -0.58349,-5.76739 3.26042,-1.67283 3.84392,4.09453 9.19676,11.78928 13.46032,20.3999 4.26355,8.6107 7.44026,18.1402 9.27958,17.2198 1.83933,-0.9203 2.33987,-12.29 0.58438,-22.8226 -1.75559,-10.53261 -5.76772,-20.2297 -9.3624,-31.76611 -1.70219,-5.46294 -3.3118,-11.37374 -4.9332,-18.26564 6.14988,11.61165 10.3288,17.54988 11.92056,16.91384 1.65339,-0.66078 0.46355,-8.29338 -3.37329,-21.83451 -3.24207,-11.50903 -12.45399,-38.43502 -15.11808,-58.57394 -1.34817,-9.69425 -1.72286,-19.6735 -1.26161,-29.95284 0.0167,-0.3769 0.0437,-0.75195 0.0629,-1.12858 0.87729,-3.57878 1.92998,-7.21479 3.19776,-10.5235 3.48784,-9.10309 8.57102,-15.72386 12.17623,-17.96971 3.6052,-2.24582 5.73345,-0.11787 5.61544,6.0292 -0.11813,6.14707 -2.48111,16.31414 -3.90003,26.24605 -1.41878,9.93189 -1.89197,19.62527 -1.12357,30.14845 0.76852,10.52319 2.77735,21.8734 4.37398,26.60217 1.59663,4.72879 2.77954,2.83528 3.07475,-3.19014 0.29535,-6.02543 -0.29701,-16.19921 0.0577,-25.5388 0.35479,-9.33958 1.65647,-17.85454 4.19845,-25.53879 2.54185,-7.68423 6.32528,-14.54142 10.04939,-18.50139 3.72412,-3.95995 7.38929,-5.02361 9.04383,-3.72435 1.65455,1.29926 1.3004,4.96533 -0.29598,9.81374 -1.59625,4.8484 -4.43344,10.87394 -6.20728,17.49569 -1.77371,6.62173 -2.48279,13.83186 -2.89664,21.04449 -0.41386,7.21261 -0.53136,14.42346 -0.23576,20.9266 0.2956,6.50313 1.00351,12.29656 2.1267,18.79984 0.4434,2.56654 0.9546,5.22138 1.54502,7.4161 0.10917,0.906 0.20931,1.80957 0.33848,2.71867 0.0167,0.11329 0.0334,0.22794 0.0501,0.34107 2.14545,14.37172 6.61112,27.82246 11.43646,39.98729 5.52402,14.01506 11.27403,26.4262 15.6398,37.1884 10.09101,24.8399 13.86043,40.1634 16.68555,39.6787 2.02784,-0.3479 3.03855,-16.6 -4.42161,-43.8169 -3.61613,-13.17 -7.5878,-23.45157 -12.75548,-38.62043 -4.03692,-11.93834 -7.92129,-24.40376 -9.71349,-36.88992 -0.0142,-0.0987 -0.0282,-0.19735 -0.0424,-0.29596 -2.99205,-20.48825 -0.49438,-40.66636 4.37398,-58.22532 4.72454,-16.96271 11.35044,-30.36867 16.13636,-39.56844 2.50473,-4.81487 4.4491,-8.43862 5.5877,-10.97995 5.64112,1.98537 11.25028,2.79065 16.48999,2.72868 1.69757,0.14407 3.46049,0.16251 5.22663,0.0552 4.47363,-0.27186 8.94456,-1.31797 13.73125,-3.22026 4.78682,-1.90228 9.88567,-4.65922 14.58891,-7.8575 4.70322,-3.1983 9.00632,-6.83456 13.37517,-10.19998 4.36872,-3.3654 8.79818,-6.45766 13.66847,-9.65573 0.25759,-0.16913 0.52995,-0.34669 0.78997,-0.51664 3.43391,-2.005 7.06646,-4.09838 11.04019,-6.3151 14.45806,-8.03882 32.3319,-17.18149 51.62686,-22.74739 6.23527,-1.82368 12.64107,-3.28689 19.21111,-4.50184 6.63359,-1.22673 13.35167,-2.18573 20.06386,-2.99955 18.54799,-2.22934 36.35417,-3.17353 52.00797,-3.7369 5.14944,-0.18435 9.87064,-0.31982 14.3733,-0.44141 1.01829,0.0278 2.05993,0.0496 3.18517,0.0803 5.40781,0.14778 11.97129,0.50102 18.29568,1.56498 6.32439,1.06397 12.41507,2.83938 17.79411,4.22846 5.37917,1.38909 10.0494,2.39419 14.42352,2.74876 1.86782,0.15139 3.6807,0.17372 5.45479,0.0626 6.94807,-0.15079 14.97362,-2.34925 22.10788,-8.03306 7.52783,-6.16862 13.0991,-15.26711 15.54195,-25.93004 2.19104,-9.35789 2.3563,-18.86963 1.63772,-28.49068 -1.22116,-17.68775 -4.64916,-35.36587 -9.47014,-53.23444 -0.30047,-1.11359 -0.60608,-2.22416 -0.91542,-3.33312 -4.43101,-15.93502 -9.66969,-31.32145 -15.14068,-45.81834 -6.52521,-17.72586 -13.61967,-32.72434 -24.93184,-44.87283 -9.51598,-10.02946 -20.14668,-15.52404 -28.91199,-18.39856 0.0476,-0.53839 0.0925,-1.10444 0.13791,-1.74304 0.20481,-2.89772 0.5284,-6.94191 2.14686,-10.97243 1.8184,-5.19435 5.2654,-8.87337 9.9215,-15.74009 0.70843,-1.04472 1.40916,-2.12361 2.08922,-3.24032 3.5419,-5.55995 6.0474,-11.33735 7.34831,-17.06431 0.0218,-0.0963 0.0346,-0.18521 0.0552,-0.2809 0.24257,-0.60896 0.4583,-1.17171 0.66208,-1.66279 0.81528,-1.96433 1.44435,-2.79965 2.61338,-3.23782 1.16904,-0.43816 2.8847,-0.48045 5.09872,0 2.21403,0.48046 4.93193,1.48574 8.35915,2.53056 0.27377,0.0835 0.57091,0.15808 0.85264,0.24077 10.92347,3.86364 26.87055,7.86439 46.52312,9.13157 10.39623,0.69274 22.14871,0.58331 34.22144,-1.76061 11.28533,-2.17589 22.77804,-6.55887 32.92734,-13.91679 1.76214,-1.31078 3.44494,-2.68024 5.0611,-4.09304 2.19527,-1.91918 4.25777,-3.91869 6.21472,-5.95897 7.41496,-0.0886 14.46358,-0.0509 20.05885,-0.24076 8.43055,-0.28403 13.52273,-1.1618 14.02468,-3.38327 0.40204,-1.77934 -2.52272,-4.41288 -8.48204,-6.95964 5.94109,-1.01723 11.21535,-2.88201 15.48173,-5.15892 6.60328,-3.52399 9.71887,-7.26166 10.20001,-9.5504 3.66723,-0.53122 7.12361,-1.27991 10.2953,-2.197 12.71684,-3.67563 18.81175,-9.11626 17.98223,-11.64457 -0.92095,-2.80692 -8.52249,-2.63537 -20.09147,-2.34998 0.2766,-0.0583 0.55704,-0.10415 0.83261,-0.16552 7.37014,-1.64767 13.37672,-3.98418 18.4287,-5.39216 9.40991,-2.41877 11.43467,-2.32337 16.81358,-2.66348 1.9992,-0.14934 3.3715,-0.40426 3.91736,-1.28911 0.51389,-0.83299 0.21932,-2.3372 -1.47965,-4.14821 -2.93928,-3.07324 -9.52138,-6.27814 -18.66947,-6.23483 3.50749,-1.17802 6.8316,-2.42932 9.92663,-3.7043 16.46085,-6.77239 25.06423,-13.45965 24.05403,-16.01096 -0.71253,-1.79979 -5.5267,-1.68441 -13.40265,-0.41632 -1.88132,-2.02396 -5.70764,-4.23006 -11.73232,-5.42728 -2.90268,-2.24554 -5.78751,-4.46114 -9.76613,-7.57661 -0.88486,-0.69293 -1.82417,-1.4367 -2.7613,-2.17945 4.17431,-1.04276 6.90723,-2.33323 8.01053,-3.62654 v 0 c 0.84312,0.0103 1.50585,-0.1852 1.98378,-0.63703 1.66867,-1.57761 0.34992,-7.46539 -6.86435,-14.37324 -0.26503,-0.2521 -0.54291,-0.49531 -0.81514,-0.74237 -0.0359,-0.78695 -0.14804,-1.669 -0.35363,-2.65093 -0.8421,-4.02402 -3.26119,-9.54325 -8.02555,-14.99774 -3.92635,-4.44503 -8.63189,-8.14817 -13.72367,-11.43891 -1.06888,-0.69899 -2.15278,-1.38148 -3.24785,-2.04902 -3.433,-2.09278 -6.87487,-3.94709 -10.24252,-5.57023 7.6172,2.14665 14.25876,3.84384 19.96358,4.74259 7.45964,1.17591 11.95497,0.74922 12.67021,-1.15618 0.71716,-1.91003 -2.39174,-5.17397 -8.73025,-9.23188 -4.82779,-3.09132 -11.69855,-6.73543 -19.5397,-9.97174 -4.41032,-1.83015 -9.12999,-3.51813 -14.04971,-4.91063 -3.40733,-0.96444 -6.80605,-1.75104 -10.17486,-2.36001 1.10843,-0.46878 1.8455,-1.07668 2.12928,-1.90106 0.78715,-2.28694 -2.70519,-6.62302 -11.22831,-9.54037 -6.50288,-2.21173 -14.74505,-3.04452 -23.44461,-1.57751 -3.27366,0.55204 -6.33723,1.41088 -9.20177,2.4528 -17.90672,-5.96967 -36.47245,-5.08153 -51.6519,-1.27154 -20.55515,5.00629 -35.54546,14.52748 -44.44894,22.05519 -7.89058,6.67134 -11.22933,11.72027 -11.40628,13.52055 -2.42512,-2.38651 -6.63,-5.13582 -12.88106,-7.43868 -5.42206,-1.99425 -11.85084,-3.39202 -18.97291,-3.77201 -4.00468,-0.21351 -8.09348,-0.0993 -12.19382,0.35863 -11.97437,1.33776 -22.29291,5.38567 -29.92025,10.21754 -0.5202,-0.24772 -1.05027,-0.51445 -1.58753,-0.81259 -3.47743,-1.78953 -6.30922,-4.49089 -10.2827,-9.06635 -2.97614,-3.57541 -5.96459,-8.2948 -9.95169,-13.27728 -0.36493,-0.46324 -0.73719,-0.92436 -1.11356,-1.38189 -6.40734,-7.78921 -13.81485,-13.88189 -21.57869,-17.84681 7.50021,2.47067 13.38262,4.28199 16.39972,3.92249 0.78817,-0.0607 1.46732,-0.29152 1.89851,-0.79753 0.4321,-0.50692 0.61444,-1.28648 0.42145,-2.44279 -0.65078,-3.05656 -4.54799,-8.38183 -11.77251,-13.89423 -7.36079,-5.61636 -17.22822,-10.67861 -28.64619,-13.60579 -0.34491,-0.0885 -0.69238,-0.17428 -1.03832,-0.25832 -5.75618,-1.35097 -11.36867,-2.01357 -16.64793,-2.13682 5.58308,-0.85131 10.12837,-1.32251 15.34124,-2.63086 9.15451,-2.29976 13.65563,-5.88593 13.21455,-8.2287 -0.47294,-2.51193 -5.78713,-3.65822 -14.15,-4.66986 -4.26459,-0.51474 -10.49318,-1.15019 -16.90129,-0.8452 -3.33374,0.16713 -6.70858,0.59415 -10.06956,1.28159 -3.32064,0.67918 -6.45368,1.60187 -9.41492,2.67351 2.44836,-1.19877 4.73353,-2.38181 6.59598,-3.37072 7.56198,-4.0313 12.45807,-7.09732 12.01827,-9.85137 -0.40717,-2.54919 -6.25119,-4.63118 -16.1063,-3.26037 -4.79825,0.67427 -9.65082,2.01878 -14.74196,3.69676 -1.96235,0.64449 -3.94395,1.33269 -5.91374,2.05153 -4.431,1.61697 -8.62047,3.3184 -12.4071,5.03353 0.50836,-0.4009 1.01339,-0.78825 1.52485,-1.20133 0.99093,-0.78071 1.9599,-1.56718 2.9118,-2.35248 6.61523,-5.45733 10.5331,-9.13357 15.93321,-12.3769 8.35119,-5.24458 15.39812,-6.76003 15.5395,-9.86139 0.0629,-1.36969 -1.5956,-2.99804 -5.28941,-3.98519 -3.64077,-0.973 -9.26301,-1.24418 -15.80775,0.67214 -7.82844,2.4067 -14.84636,6.94887 -21.33036,12.39947 -0.98875,0.83108 -1.94566,1.66532 -2.87418,2.49545 -0.26799,0.23382 -0.52261,0.46401 -0.78753,0.69721 0.30844,-0.30735 0.61534,-0.62594 0.92545,-0.93297 3.81784,-3.64642 7.33792,-7.05807 10.38813,-11.24328 2.94429,-4.03996 4.63865,-7.77258 5.21404,-10.85205 0.57373,-3.29206 -0.22639,-5.2129 -1.42457,-5.73074 -1.27111,-0.54937 -2.97946,0.26673 -5.24921,1.68787 -2.05429,1.33216 -4.6041,3.10554 -7.96276,5.25674 -3.08386,1.97518 -7.80931,4.91944 -12.02329,8.43435 -2.24909,1.81831 -4.4206,3.80107 -6.4831,5.92636 -4.95966,5.11031 -8.8263,10.58451 -11.61201,15.82287 0.7878,-5.40386 0.82015,-11.4031 -0.40127,-17.57595 -0.95279,-4.81497 -2.60657,-9.43873 -4.93577,-13.70362 -4.27267,-7.67879 -10.20015,-12.87908 -15.11307,-15.68994 -3.07962,-1.76198 -5.58719,-2.53055 -7.29824,-2.59326 z m -45.28668,87.98003 c 2.69209,2.48369 15.25598,4.19108 33.89541,8.41679 11.44237,2.76282 25.33402,6.26632 34.36693,14.19269 0.72987,0.57641 1.44177,1.18565 2.13428,1.82581 6.74133,6.23162 12.23607,15.94023 17.8117,24.52806 15.79761,24.9919 28.86243,39.05252 31.61564,37.29121 2.91809,-1.86684 -4.94207,-19.16176 -18.07006,-44.99823 -4.49315,-9.11444 -10.31559,-20.12906 -19.71768,-29.14777 -0.94598,-0.90738 -1.92549,-1.79309 -2.94441,-2.65597 -2.67629,-2.10531 -5.45082,-3.91909 -8.27388,-5.48997 2.40163,0.94649 5.39689,2.20714 9.12909,3.79208 6.10224,2.59133 13.96085,5.93583 22.32103,6.01916 8.36005,0.0833 17.2241,-3.09346 26.16828,-4.63977 8.94418,-1.54632 17.97299,-1.4621 26.49933,-0.0828 8.52633,1.37933 16.55252,4.05317 24.15945,7.81488 7.60694,3.76171 14.79731,8.61177 20.18919,12.95875 1.34059,1.08076 2.5683,2.12907 3.68931,3.08232 2.84567,2.92735 5.71381,6.15929 8.82053,9.88394 0.32872,0.39415 0.65823,0.78959 0.98566,1.18628 2.31238,2.85111 4.60422,5.77253 7.21799,8.64001 0.50297,0.66299 1.02406,1.33524 1.56748,2.03647 2.59155,3.34387 5.35182,7.0646 6.87693,10.17741 1.52511,3.11279 1.8166,5.61995 3.09234,6.79161 1.27574,1.17167 3.53137,1.00584 6.14449,0.62951 0.4986,-0.0718 1.01378,-0.15993 1.52742,-0.24578 2.51205,-0.23196 6.13292,-1.21453 10.79184,-2.53056 8.58965,-2.4264 17.93242,-4.98379 29.69452,-6.30257 0.22652,-0.0254 0.44867,-0.0385 0.67467,-0.0626 0.85943,-0.0138 1.81107,-0.0539 2.83154,-0.0979 2.90563,-0.12546 5.91425,-0.16557 9.6557,0.0226 3.7413,0.18814 8.21289,0.60436 11.11787,1.29412 2.905,0.68975 4.24404,1.65196 3.47102,3.26037 -0.75928,1.5798 -3.54202,3.77524 -5.00846,4.92318 -2.02731,1.17885 -4.07876,2.38943 -6.09183,3.60899 -10.66177,6.45883 -20.11728,12.6571 -24.10681,17.26996 -0.0295,0.0303 -0.0668,0.0628 -0.095,0.0928 -1.42007,1.50348 -2.12966,2.71652 -2.10924,3.88736 0.0206,1.17085 0.772,2.29859 3.02967,3.44849 2.25781,1.14989 6.01929,2.32154 9.53037,4.03535 2.3432,1.14377 4.544,2.49867 6.42801,3.52371 3.4479,2.72503 7.19783,5.88106 10.95481,9.51026 5.84876,5.85281 12.18624,12.99454 13.651,20.85891 0.32333,1.33674 0.51247,2.71887 0.59183,4.13816 0.25091,4.48468 -0.60955,9.3235 -1.81583,14.04722 -1.80452,6.75393 -4.5996,13.45318 -6.56836,19.95852 -1.14861,3.79044 -2.0024,7.30797 -2.62339,10.52601 -0.31164,0.89186 -0.64256,1.91502 -0.99311,3.18513 -0.8145,2.95082 -1.69268,7.04424 -2.1945,10.7442 -0.5017,3.69996 -0.62613,7.00179 -1.0233,10.07457 -0.37931,2.9355 -1.02058,5.67506 -2.09665,8.93845 -0.52699,1.30744 -1.0952,2.661 -1.76562,4.09554 -1.9956,4.31988 -4.47941,8.49073 -7.70453,13.28227 -0.65475,0.92563 -1.3375,1.87969 -2.03142,2.86663 -4.39671,6.25375 -8.40359,12.82159 -9.81376,20.75857 -0.84314,5.62103 0.22638,10.29209 1.68035,13.51552 -0.58169,-0.11788 -1.15131,-0.22531 -1.69795,-0.31852 -2.80855,-0.47896 -5.23111,-0.69537 -7.26305,-0.73733 -0.67736,-0.0139 -1.31042,-0.009 -1.90109,0.0128 -3.9374,0.14466 -5.94404,1.00729 -5.98898,1.62518 -0.10529,1.43881 4.77128,2.39191 13.15932,5.99658 8.04956,3.45922 20.30758,10.01214 29.87763,22.26336 8.75375,10.93762 13.54018,24.08898 19.58991,41.72281 4.82778,14.45974 9.63437,29.54099 13.87905,44.96814 0.29457,1.07345 0.58696,2.14605 0.87536,3.22025 4.63902,17.28134 8.20532,33.76913 9.96426,50.19476 0.90079,8.91803 1.31851,16.76287 -0.0128,24.0641 -1.53179,8.14939 -4.66008,15.01435 -9.40235,19.5397 -3.37625,3.36248 -7.47287,5.51854 -11.49669,6.73393 -1.70989,0.0762 -3.38408,0.2279 -5.194,0.19562 -3.31153,-0.0591 -7.09432,-0.76845 -10.93734,-1.65526 -2.89292,-0.6676 -5.95418,-1.45168 -9.29204,-2.26973 -2.74306,-1.01535 -6.8646,-2.13891 -12.27652,-3.22527 1.04885,-4.40504 0.59621,-16.70979 3.15501,-33.73237 1.84575,-12.47742 5.17769,-24.70758 10.18486,-40.01737 1.61936,-4.76178 3.35533,-9.76759 4.93822,-14.90495 3.80667,-12.35391 6.5003,-24.82941 5.8286,-37.87305 -1.01328,-15.03926 -6.90814,-26.90627 -13.2722,-35.09169 -2.04709,-3.15252 -4.41971,-6.40386 -6.51071,-9.05884 -3.94587,-5.00976 -6.84406,-7.8789 -10.25767,-10.28775 -3.41375,-2.40884 -7.34422,-4.35821 -11.94048,-5.43729 -2.87276,-0.67442 -6.00438,-1.00803 -9.1617,-1.04082 -1.89441,-0.0197 -3.79807,0.07 -5.66051,0.25832 -4.96659,0.50236 -9.63412,1.71339 -13.84657,2.9845 -1.36729,0.41256 -2.67591,0.85414 -3.99519,1.2891 -2.5534,0.59073 -5.31419,1.32565 -8.32152,2.27224 -12.86964,4.03339 -28.25659,12.37645 -44.38628,16.16897 -5.78904,1.44447 -11.86893,2.26528 -18.25317,2.78637 -3.22896,0.26354 -6.50389,0.447 -9.79617,0.59939 -10.8838,0.46664 -19.96614,0.45393 -30.51209,1.38442 -3.19057,0.28328 -6.23013,0.66258 -9.18675,1.08345 -1.19266,0.0783 -2.39611,0.13873 -3.58388,0.22571 -5.16511,0.37824 -10.31328,0.80277 -15.54453,1.50229 -5.23124,0.6995 -10.54402,1.67425 -16.26668,3.30551 -5.72279,1.63128 -11.85495,3.91941 -18.22056,8.22619 -6.3656,4.30676 -12.96479,10.63397 -17.24991,16.85866 -4.28513,6.22468 -6.25748,12.34791 -7.70196,17.33016 -0.50644,1.74655 -0.91478,3.30324 -1.27163,4.77269 -1.35959,4.12321 -2.36401,8.78406 -2.7161,13.95191 -0.90335,14.66373 3.50825,30.96737 13.94442,45.23147 2.51014,3.43361 5.22174,6.6351 8.06317,9.65323 4.05425,4.30651 8.32936,8.19781 12.54745,11.80257 7.57933,6.54073 14.8827,12.27863 20.91406,17.97722 13.28992,12.67842 19.08373,22.57097 23.28654,31.00116 0,0.007 0,0.0115 0.0128,0.0176 -1.19266,0.72413 -2.36607,1.449 -3.52123,2.17692 -3.23192,1.73185 -6.70075,3.88167 -10.37299,6.27498 -6.06037,3.94964 -12.66623,8.54874 -18.49638,13.04151 -5.83026,4.49277 -10.8915,8.88322 -15.32133,12.60261 -4.42972,3.7194 -8.23345,6.77244 -12.64274,8.82058 -4.13079,1.9188 -8.7901,2.947 -12.9712,3.22526 -6.36805,0.13563 -13.52607,-1.18469 -19.97617,-4.89307 -6.4429,-3.67866 -12.32493,-9.87427 -15.25097,-17.51074 -2.406,-5.92107 -2.92952,-12.93679 -2.63342,-20.55543 0.34697,-7.3868 1.73301,-14.88721 2.88419,-23.37189 0.74067,-5.41195 1.33919,-10.83933 1.81827,-16.27931 1.36884,-15.54474 1.74906,-30.99258 1.78566,-45.71551 0.15794,-24.59846 -0.32681,-40.78899 3.55628,-58.72943 6.27919,-29.68999 19.16243,-45.02325 17.35777,-46.54566 -0.80974,-0.68318 -4.93577,1.79652 -10.85952,8.7654 -5.78596,6.80679 -13.52748,18.39921 -18.66189,34.5299 -5.93185,18.90688 -6.9536,37.76142 -7.72212,61.66378 -0.52571,14.54622 -1.13206,29.63812 -2.44028,44.53675 -0.33232,3.78529 -0.7259,7.54295 -1.15619,11.28844 -0.8651,-2.57897 -1.81442,-5.28634 -2.9493,-8.2613 -3.871,-10.20489 -13.48099,-31.11154 -16.97153,-45.39449 -2.56727,-10.04027 -3.59415,-20.36086 -5.31701,-32.11723 -0.58606,-3.99979 -1.2394,-8.03781 -2.04901,-12.10352 -3.00464,-15.26625 -8.06754,-29.2265 -15.10048,-41.38673 -9.80928,-16.88507 -22.15129,-27.78643 -31.36988,-33.81263 -1.53807,-1.00541 -2.94338,-1.83212 -4.28615,-2.58323 -0.77007,-0.85755 -1.54694,-1.63007 -2.44028,-2.55812 -2.1529,-2.23657 -4.95414,-5.49877 -6.62614,-10.72415 -1.67188,-5.22539 -2.21532,-12.41325 -2.8214,-18.1603 -0.33707,-3.19635 -0.70369,-5.91243 -1.15876,-8.31396 -0.0643,-0.62974 -0.12199,-1.25843 -0.20558,-1.88851 -1.85102,-13.93243 -8.019,-25.15503 -14.48862,-32.47838 -5.55445,-6.28739 -10.11565,-8.62063 -11.60199,-8.6099 -0.21225,10e-4 -0.36313,0.0504 -0.4439,0.14294 -0.51004,0.58377 0.48795,2.21029 2.1895,4.78524 -0.51184,0.92268 0.0655,3.96888 -0.5618,6.75651 -0.75195,3.34407 -3.25965,6.26959 -8.19363,9.69836 -4.93385,3.42879 -12.28563,7.35708 -19.55972,12.95876 -7.27397,5.60168 -14.46294,12.87287 -20.73352,20.39741 -6.27059,7.52454 -11.61893,15.29719 -14.12739,22.02762 -2.50847,6.73043 -2.17628,12.41373 -1.13116,16.1765 1.04524,3.76274 2.80162,5.60194 7.60925,6.68878 4.39466,0.99347 11.33874,1.34892 18.37348,0.92545 -9.12973,3.868 -18.41111,7.63646 -26.39904,9.70087 -10.52142,2.71916 -18.79659,2.48091 -20.45255,-3.31305 -1.65609,-5.79395 3.31102,-17.14034 4.84794,-26.00777 1.5368,-8.86744 -0.35749,-15.254 -6.14962,-17.0267 -5.79213,-1.77273 -15.48571,1.06506 -26.95324,3.90241 -11.46754,2.83738 -24.70995,5.6749 -37.71506,4.13819 -13.00524,-1.53673 -25.77035,-7.44673 -31.68344,-13.4779 -5.91296,-6.03116 -4.96826,-12.17653 1.535,-17.96972 6.50313,-5.79315 18.56161,-11.23248 30.26632,-12.41449 11.70459,-1.18202 23.05425,1.89108 26.24597,0.23574 3.19186,-1.65535 -1.77255,-8.0386 -4.37385,-15.9608 -2.60131,-7.9222 -2.83886,-17.37879 -0.59198,-25.06478 2.2469,-7.68599 6.97645,-13.59533 18.0901,-16.4323 11.11365,-2.83696 28.61126,-2.60109 45.39955,0.82763 16.78828,3.42873 32.85748,10.04715 41.37419,13.59577 5.54635,2.311 7.86246,3.29885 9.10893,3.38076 0.0552,0.0366 0.10655,0.0791 0.16551,0.10781 1.521,0.73885 4.47697,-1.23542 7.7071,-6.06181 2.0503,-3.06353 3.98773,-6.96677 5.54263,-11.44392 0.43261,-1.03014 0.85854,-2.09896 1.27407,-3.21522 1.50753,-4.04992 2.9258,-8.54067 3.97515,-13.03399 1.04936,-4.49333 1.72877,-8.98331 1.9061,-11.92546 0.17734,-2.94215 -0.14933,-4.33014 -0.63704,-5.4975 -0.0462,-0.11009 -0.0976,-0.20763 -0.14548,-0.3135 -0.0925,-0.72247 -0.61753,-1.56296 -1.50726,-2.50798 -0.0758,-0.0952 -0.20109,-0.22295 -0.30356,-0.29345 -5.25359,-5.26887 -21.33292,-13.67341 -39.39786,-23.78069 -5.61402,-3.14106 -8.62174,-4.84488 -13.97202,-7.85499 -3.70728,-2.12118 -6.21408,-3.54031 -8.57218,-4.92066 -0.24141,-0.21675 -0.49219,-0.43554 -0.71986,-0.64957 -2.09024,-1.96485 -3.3855,-3.7627 -1.96375,-5.6229 1.42174,-1.8602 5.5583,-3.78431 11.3462,-6.1872 5.78776,-2.40288 13.23225,-5.28681 17.80913,-7.1678 4.57687,-1.88101 6.29152,-2.75862 8.79805,-3.84475 1.3226,-0.57314 2.86954,-1.22047 4.47915,-2.03648 8.00976,-2.5864 15.31492,-6.24681 19.22869,-10.44073 4.9648,-5.32004 4.49341,-11.47048 9.10406,-14.5438 4.61064,-3.07332 14.30742,-3.07187 22.22818,-6.50069 3.14666,-1.36209 6.0067,-3.26967 8.51209,-5.44733 4.90265,-2.99905 9.86372,-6.8522 14.90504,-10.69153 6.31104,-4.80641 12.74983,-9.57109 20.31464,-13.83404 7.56483,-4.26295 16.2613,-8.02505 26.45914,-9.9893 10.19809,-1.96425 21.90396,-2.13173 33.73245,-0.627 11.82838,1.50474 23.78528,4.68086 32.14482,7.73212 8.35953,3.05126 13.1253,5.977 15.17329,5.34952 2.04799,-0.62747 1.37924,-4.80736 -2.21453,-9.36229 -3.59378,-4.55494 -10.11746,-9.48769 -20.52537,-13.24968 -10.40792,-3.762 -24.70288,-6.35342 -30.68018,-9.44756 -4.35614,-2.255 -4.28655,-4.77371 -2.49293,-6.7515 z m 132.12063,22.27842 c -0.27813,0.005 -0.58811,0.0473 -0.93802,0.13543 -2.28504,0.78122 -5.71547,4.73294 -8.32153,11.98314 -1.59664,5.06302 -2.16291,11.05793 -1.28152,17.26746 1.24993,8.80575 5.11452,16.07876 9.48016,20.57551 4.31171,4.44123 8.11864,5.32078 9.83123,3.98267 1.81095,-1.41487 1.58404,-4.97167 0.71485,-9.81875 -0.86598,-4.82865 -2.24856,-10.95488 -3.13754,-17.14708 -0.67916,-4.73095 -1.01802,-8.60234 -1.33417,-12.82582 -0.90938,-4.40715 -1.30746,-8.61726 -2.27476,-11.35616 -0.26387,-0.55082 -0.49809,-1.41707 -0.99067,-2.02144 -0.37777,-0.46345 -0.91375,-0.78961 -1.74803,-0.77496 z M 429.461,298.09934 c -2.44529,-0.0287 -4.87594,0.0421 -7.2908,0.20314 -17.63629,1.17583 -33.73168,7.15171 -46.59579,13.23212 -25.99417,12.10416 -39.2882,23.74361 -37.96327,26.14573 1.58096,2.86635 17.5048,-3.71026 43.45081,-12.48976 12.8663,-4.26559 27.80434,-9.06191 42.19678,-9.94415 1.99688,-0.12237 3.98606,-0.17275 5.96895,-0.14045 10.35167,-4.5e-4 21.06608,2.275 30.90336,4.63727 14.53689,3.54874 22.35814,5.99385 33.11545,7.63179 11.31845,1.71997 17.57992,0.92095 17.91699,-0.72982 0.3738,-1.83014 -5.16909,-4.4555 -15.19332,-8.82059 -5.98911,-2.60474 -20.35188,-8.91487 -31.50533,-12.76061 -10.18358,-3.55066 -22.12238,-6.64339 -35.00383,-6.96467 z m 177.85108,0.11284 c -3.82709,-0.11596 -7.80904,0.40219 -11.7499,1.70292 -1.46747,0.48435 -2.91527,1.07457 -4.3338,1.77064 -9.88491,5.11391 -15.18446,14.51027 -16.02104,23.39948 -0.76609,9.04097 2.98498,15.63461 6.1622,18.87006 3.3421,3.40353 6.09916,3.64465 7.03988,2.75376 1.08082,-1.02364 0.58182,-3.31416 0.15049,-6.71136 -0.4172,-3.28584 -0.77533,-8.05793 0.82002,-12.4095 1.46104,-4.21686 5.00731,-8.65311 9.43766,-10.68149 0.65232,-0.33673 1.34495,-0.62218 2.07149,-0.86276 3.08926,-1.02274 6.8004,-1.22016 10.39815,-0.96306 7.37285,0.63783 13.77338,3.91549 18.29323,6.62358 4.5571,2.73049 7.32098,4.83897 8.98862,3.93754 1.41249,-0.76349 1.94244,-4.76998 -1.65532,-10.79938 -3.51185,-5.88559 -11.09502,-13.15558 -22.92288,-15.76768 -2.14251,-0.49464 -4.38259,-0.79319 -6.6788,-0.86275 z m 194.53421,15.60718 c 2.46326,-0.0637 4.91947,0.0201 7.32828,0.30095 9.63541,1.12337 18.50113,5.37919 27.0737,7.56658 8.57257,2.18742 16.84748,2.30516 23.70541,2.60078 6.85805,0.29563 12.29848,0.77015 13.83411,2.24716 1.53551,1.47702 -0.83004,3.96005 -6.03174,6.44301 -5.20158,2.48296 -13.24292,4.96557 -17.14462,9.87142 -3.90157,4.90584 -3.66389,12.23535 0.3562,17.73395 4.01997,5.49859 11.82323,9.16354 19.98104,13.12427 8.15794,3.96073 16.67041,8.21732 16.37469,11.40882 -0.29586,3.19148 -9.39927,5.32041 -19.09335,9.33971 -9.69397,4.01932 -19.98233,9.931 -27.60789,18.79735 -7.62542,8.86633 -12.59201,20.6902 -18.02986,30.9159 -5.43785,10.2257 -11.34953,18.85764 -19.21111,23.40951 -7.86156,4.55187 -17.67558,5.02637 -29.02486,5.32195 -3.88911,0.10128 -7.91357,0.18256 -11.90297,0.26834 3.14806,-0.70539 5.8354,-1.38298 8.11838,-1.95371 3.66633,-0.91658 6.4456,-1.56784 10.05197,-2.83905 3.60648,-1.2712 8.03825,-3.1617 12.62026,-5.61537 4.58188,-2.45366 9.309,-5.4685 11.31846,-9.81374 2.0096,-4.34522 1.30129,-10.01761 -0.23576,-15.84041 -1.53705,-5.82279 -3.90157,-11.79463 -7.15275,-17.26245 -3.25118,-5.46782 -7.39005,-10.43368 -12.82828,-15.39901 -5.43825,-4.96534 -12.177,-9.93111 -17.11201,-13.03399 -4.935,-3.10289 -8.06882,-4.34546 -11.37869,-5.5276 -3.30998,-1.18213 -6.79808,-2.30348 -10.04951,-4.01778 -1.65943,-0.87493 -3.25414,-1.89946 -4.58215,-2.6384 -2.60605,-2.90658 -5.41011,-5.40214 -8.12582,-7.50389 -6.8786,-5.49395 -13.52247,-9.2487 -18.99294,-11.68719 5.48036,-1.61601 11.55511,-4.25139 17.52831,-7.87006 3.78844,-2.2951 7.3148,-4.84774 10.4558,-7.53399 3.44829,-2.87113 6.23566,-5.91368 8.2563,-8.9911 1.05167,-0.95986 2.05531,-2.05841 2.96688,-3.07731 2.00948,-2.24586 3.60597,-4.02163 7.18036,-6.08937 3.57439,-2.06774 9.13731,-4.43397 14.36829,-6.47311 3.20599,-1.24977 6.28664,-2.37904 9.17417,-3.68422 5.55509,-1.2689 11.70227,-2.33998 17.8117,-2.49795 z m -52.58735,5.52258 c -0.0321,0.0417 -0.0604,0.0818 -0.0899,0.12288 -0.0309,-0.0361 -0.0629,-0.074 -0.095,-0.11032 0.0565,6.1e-4 0.12327,-0.008 0.18568,-0.0128 z m -257.97121,22.38879 c -1.71438,-5.2e-4 -3.42079,0.0896 -5.10873,0.26836 -13.44388,1.48038 -23.07094,8.16721 -28.19471,13.99955 -5.21917,5.94088 -5.73678,10.39013 -4.49687,11.38374 1.49057,1.19443 4.86143,-0.85591 10.63391,-3.50366 5.74386,-2.63463 13.84053,-5.71672 23.11357,-5.72321 4.66869,-0.0317 9.49467,0.72917 14.20021,2.26723 5.64099,1.84384 10.75179,4.68765 14.98016,8.20361 6.564,5.25618 12.16185,12.74503 17.32516,17.00411 5.47227,4.53034 9.37898,5.62545 10.54608,4.45166 1.2778,-1.28521 -0.16898,-4.81422 -2.9344,-10.55107 -2.04824,-4.26973 -6.80064,-14.50198 -13.97703,-22.32606 -5.44657,-5.77136 -12.52562,-10.35562 -20.64568,-13.0039 -5.07548,-1.65525 -10.2985,-2.46881 -15.44167,-2.47036 z m -62.14776,0.82764 c -8.6292,0.15232 -28.30334,4.10971 -54.43579,11.17809 -11.38947,3.07076 -23.55363,6.63713 -35.64844,9.83881 -8.52108,2.25562 -16.71792,4.24809 -24.92941,5.90128 -19.63755,3.9811 -36.20226,5.44277 -49.09129,6.57342 -12.49969,1.0965 -19.5026,1.81755 -19.71768,3.76448 -0.19171,1.73465 6.43315,4.63618 19.39923,6.52075 13.08908,1.90249 31.30296,2.47557 52.25631,-0.69471 8.80549,-1.34353 17.60676,-3.25341 26.43666,-5.58025 12.57352,-3.31338 24.86699,-7.38966 35.95701,-11.29346 34.02227,-11.94553 55.5622,-21.77167 54.55111,-25.06728 -0.25168,-0.82045 -1.90135,-1.1919 -4.77771,-1.14113 z m 230.83972,4.24351 c -4.38541,0.0876 -14.77548,4.74334 -29.79981,9.98176 -8.31125,2.85127 -19.75902,6.3742 -29.97547,12.00571 -2.7233,1.50116 -5.40191,3.16382 -8.00296,5.03352 -14.70394,10.8874 -21.56123,25.82838 -23.50226,37.15828 -1.9518,11.39232 0.80256,17.33014 2.54301,17.40541 2.26269,0.0979 3.82414,-5.50767 8.16602,-14.00207 4.37746,-8.56375 11.39423,-19.18616 22.61201,-26.80031 1.99174,-1.40797 4.11164,-2.6968 6.35277,-3.92248 8.63395,-4.72216 18.92975,-8.5459 27.77583,-13.23714 19.16256,-10.04774 27.44736,-20.64873 25.88989,-22.90541 -0.35569,-0.51541 -1.04705,-0.73749 -2.05903,-0.71727 z m 37.83294,33.86278 c -1.08455,0.0669 -2.31984,0.31031 -4.30118,0.80005 -3.9627,0.97951 -10.8915,2.93632 -16.0511,8.40676 -5.15959,5.47041 -8.5393,14.45009 -7.51639,23.61265 1.02289,9.16256 6.44663,18.50006 12.53987,24.41522 6.09325,5.9151 12.85372,8.40541 17.6562,10.62883 4.80249,2.2234 7.65149,4.18171 11.12045,2.04652 3.46884,-2.1352 7.55815,-8.36625 10.44824,-15.08051 2.89009,-6.71426 4.57957,-13.91867 2.93427,-22.72233 -1.64518,-8.80364 -6.62359,-19.21168 -11.38112,-24.85913 -4.75768,-5.64742 -9.29641,-6.53741 -12.05348,-6.98222 -1.37846,-0.22241 -2.31123,-0.33269 -3.39576,-0.26584 z m 5.64792,12.68287 c 1.33841,-0.0308 2.58474,0.55198 3.90504,1.89602 1.76023,1.79209 3.6508,4.94145 3.965,7.07753 0.31423,2.13608 -0.94405,3.27018 -3.14498,4.08802 -2.2008,0.81784 -5.34399,1.31921 -7.54645,-0.25331 -2.20247,-1.57251 -3.46036,-5.21842 -3.01966,-7.82991 0.44069,-2.6115 2.58024,-4.18479 4.46669,-4.75012 0.47165,-0.14134 0.92827,-0.21801 1.37436,-0.22823 z m -255.18472,6.19221 c -4.08648,0.0403 -8.2405,0.22942 -12.45218,0.55175 -4.47825,0.29234 -8.9298,0.68906 -13.36247,1.13862 -15.62041,1.5842 -27.48705,3.33676 -41.25888,4.04037 -17.85792,0.94356 -32.84297,-0.30136 -43.75925,-1.24898 -10.81021,-0.93841 -16.79907,-1.42389 -17.31758,0.24829 -0.45688,1.47347 4.58354,5.08217 15.33623,8.84565 10.76116,3.76642 26.65534,7.36884 45.97636,7.74967 14.2553,0.2584 27.9972,-1.1556 42.74855,-2.65845 4.36653,-0.44485 8.64833,-0.87608 12.91368,-1.24648 14.25837,-1.06924 26.82611,-1.44842 38.68056,-0.19311 11.7589,1.24519 20.59856,3.8918 28.04433,7.09007 10.97279,4.58948 16.28287,8.85475 17.7615,7.36845 0.94175,-0.94655 -1.77037,-7.9326 -12.85834,-15.95327 -7.44912,-5.29596 -17.51777,-10.04831 -30.56487,-12.90359 -8.20737,-1.79612 -16.84402,-2.68511 -25.82466,-2.81897 -1.34714,-0.02 -2.70082,-0.0234 -4.06298,-0.0103 z m 303.91493,4.0855 c 2.80163,0.52408 6.19278,0.99502 9.766,1.55745 3.42813,0.5396 7.68193,1.25508 10.56367,1.61014 2.35554,1.89404 4.72853,4.14094 6.88939,6.51322 -2.98807,-0.88423 -6.22115,-1.6433 -9.60805,-2.1995 -6.62243,-1.08755 -12.86194,-1.27435 -17.72888,-0.80506 0.20198,-2.16952 0.25951,-4.38496 0.12327,-6.63362 -9e-4,-0.0143 0,-0.0285 0,-0.0426 z m -35.36517,7.65185 c 0.5189,-0.0772 1.04229,0.40647 1.45475,1.23143 0.65963,1.31994 1.03663,3.52084 0.18799,6.35021 -0.84854,2.82937 -2.92631,6.29428 -4.71748,8.08573 -1.79118,1.79151 -3.29883,1.91392 -3.20521,0.40379 0.0937,-1.51012 1.7922,-4.65332 2.92437,-7.76722 1.13218,-3.11393 1.69538,-6.19411 2.4503,-7.51391 0.28301,-0.49493 0.59402,-0.74373 0.90528,-0.79003 z m 34.25907,5.19905 c 4.45474,1.08038 10.60231,2.13458 17.30512,3.23529 4.40198,0.7229 9.25429,1.4845 13.00896,1.97379 1.73133,0.22563 3.29908,0.39803 4.7099,0.51915 1.60113,2.61714 2.90307,5.18347 4.03037,7.63181 0.10015,0.21819 0.18311,0.42563 0.28083,0.64203 -5.00152,-1.44791 -11.14935,-2.89531 -17.76149,-4.12814 -9.37679,-1.74831 -17.75919,-2.71437 -23.6127,-2.87665 0.21881,-0.63262 0.4398,-1.26725 0.6396,-1.89604 0.53855,-1.64283 1.00634,-3.35068 1.39941,-5.10124 z m -4.04038,12.26655 c 5.41717,2.01309 13.81433,4.21691 23.43715,5.98404 8.54791,1.56974 16.64845,2.53417 22.58684,2.76632 0.36468,1.32669 0.63036,2.63321 0.76492,3.92749 0.0231,0.2237 0.0295,0.44661 0.0449,0.66964 -2.67335,-1.12754 -5.76825,-2.26218 -9.31721,-3.30803 -4.16506,-1.22735 -8.61982,-2.24223 -13.24715,-2.97697 -9.65545,-1.53318 -18.60206,-1.61164 -25.50365,-0.82263 -0.52673,0.0602 -1.00107,0.13268 -1.48967,0.20064 0.93071,-2.1081 1.79246,-4.13642 2.72355,-6.4405 z m -5.08859,11.83266 c 6.31733,1.04021 16.59002,2.03199 27.99156,3.84223 4.46516,0.70895 8.57283,1.4386 12.7104,2.21957 3.8827,0.73279 7.31301,1.41397 10.31033,1.97879 -0.45457,1.16602 -1.0708,2.30849 -1.9111,3.41587 -1.40005,1.84507 -3.38832,3.59018 -5.58771,5.1138 -1.24929,-0.74668 -2.72445,-1.52973 -4.45925,-2.32742 -4.96968,-2.28489 -11.22575,-4.32056 -18.14017,-5.60785 -7.98458,-1.48652 -15.45681,-1.71273 -21.20504,-1.11105 -0.90386,0.0947 -1.71592,0.20984 -2.48547,0.33607 0.45354,-1.44773 0.90361,-2.93485 1.24145,-4.16324 0.35749,-0.87641 0.67441,-1.7062 1.05848,-2.61081 0.13072,-0.30765 0.33656,-0.7631 0.47652,-1.08596 z m -378.32432,2.23461 c -1.37783,-0.009 -2.76349,0.0592 -4.15069,0.21068 -11.09721,1.21258 -22.25631,7.64358 -28.50314,16.4975 -6.24696,8.8539 -7.58138,20.136 -6.91456,29.77979 0.66683,9.64382 3.33645,17.64757 7.52142,25.04724 4.18497,7.39965 9.88336,14.19138 14.85727,18.92272 4.97405,4.73136 9.2177,7.40086 14.31309,3.57889 5.09538,-3.8219 11.03826,-14.12727 16.13391,-22.5593 5.09564,-8.43202 9.33955,-14.98084 13.46532,-19.04563 4.12578,-4.06475 8.12673,-5.64123 8.48949,-12.79823 0.36287,-7.15698 -2.91373,-19.8917 -10.06956,-28.25994 -6.26134,-7.32224 -15.49714,-11.3053 -25.14255,-11.37372 z m 225.04386,7.61674 c -0.10403,0.0167 -0.19184,0.054 -0.26581,0.11283 -1.05398,0.83933 1.83098,7.10651 9.24697,16.6179 7.16315,9.18506 17.16195,19.53253 29.57664,29.60173 -2.6e-4,-2.1e-4 0.27607,0.2234 0.27582,0.2232 7.94785,6.42439 16.54687,12.46653 23.728,17.39788 15.60051,10.71484 25.72349,16.92445 26.95839,15.41156 1.17442,-1.43883 -6.74467,-10.39264 -21.39559,-22.71982 -6.85009,-5.76456 -14.88437,-11.96103 -22.67724,-18.26564 l -0.26838,-0.2182 c -12.71335,-10.29591 -21.609,-18.33411 -30.61494,-26.57709 -8.07871,-7.39269 -13.00473,-11.83452 -14.56386,-11.58438 z m 148.9893,3.00458 c 5.11978,1.28608 13.89125,2.54256 23.60756,4.35134 6.0379,1.12399 11.95844,2.35905 16.8236,3.3005 -3.12997,1.22012 -6.1902,1.86721 -9.35484,2.31489 -1.80222,-0.61131 -3.88668,-1.20102 -6.27995,-1.73052 -2.94917,-0.65249 -6.14693,-1.17437 -9.42495,-1.52736 -6.77201,-0.72925 -12.85782,-0.62531 -17.16221,-0.0226 0.51287,-2.19716 1.14373,-4.48599 1.79079,-6.68628 z m -388.85782,12.76061 c 3.09247,-0.12019 6.73477,3.03582 7.70452,6.79412 0.96987,3.7583 -0.72705,8.12454 -3.21266,10.30782 -2.48573,2.18327 -5.75991,2.18311 -8.00551,0.12032 -2.24561,-2.0627 -3.45907,-6.18215 -2.79135,-9.94415 0.66772,-3.76201 3.21265,-7.15799 6.305,-7.27818 z m 157.34087,7.42112 c -2.08728,-0.22174 -4.46181,10.98202 -9.573,28.07436 -2.24766,7.50818 -4.81109,15.39976 -8.00795,23.51234 -0.40796,1.03524 -0.82143,2.06635 -1.24402,3.09235 -3.58582,8.70293 -7.30633,16.15937 -11.30344,22.99819 -7.63711,13.08239 -13.89921,20.19213 -12.50727,21.63888 0.99902,1.03844 9.7592,-3.67024 19.73784,-16.7784 5.09846,-6.70428 9.7493,-14.70868 13.63328,-23.85594 0.46278,-1.08934 0.91286,-2.1858 1.34688,-3.28796 3.38242,-8.59013 5.7391,-17.16094 7.28822,-25.12748 3.58068,-18.38769 2.36028,-30.08248 0.62946,-30.26634 z M 338.38107,496.6714 c 0.1948,0.0435 0.43004,0.23052 0.71973,0.57182 1.03036,1.21378 2.73203,4.36727 5.21917,7.15779 2.48702,2.7905 5.76171,5.21635 8.06562,8.36914 2.30391,3.15281 3.64038,7.03815 2.73125,8.61491 -0.90913,1.57677 -4.06453,0.84922 -7.40109,-1.63771 -3.33658,-2.48691 -6.85023,-6.73189 -8.60994,-10.73667 -1.75959,-4.00477 -1.76254,-7.7518 -1.57994,-10.00184 0.11432,-1.40624 0.30035,-2.22027 0.67466,-2.33493 0.0565,-0.0171 0.11557,-0.0169 0.18054,-0.002 z m -36.67173,16.76836 c 1.15761,0.85101 2.55148,1.6025 4.09547,2.14935 2.77799,0.98383 5.39342,1.13306 7.28578,0.67966 0.32166,0.99655 0.6111,2.03119 0.89784,3.06727 -3.09235,-1.45595 -7.00509,-2.71169 -11.30344,-3.45601 -1.51278,-0.26193 -2.99898,-0.43071 -4.45668,-0.54924 1.21551,-0.72045 2.36888,-1.33917 3.48103,-1.89103 z m -12.77821,8.37917 c 0.7589,0.2218 1.50483,0.44375 2.38763,0.65961 2.85838,0.69892 6.44753,1.39962 9.879,1.99385 5.6537,0.97907 10.81869,1.69115 14.34813,1.69036 0.17079,0.97008 0.3304,1.9504 0.46394,2.9494 0.11043,0.831 0.2052,1.65994 0.28597,2.48792 -0.30728,-0.14359 -0.59877,-0.28436 -0.93045,-0.42887 -4.69013,-2.04332 -11.08822,-3.81534 -18.21298,-4.65732 -3.66337,-0.43295 -7.25971,-0.59167 -10.64135,-0.49909 -1.03228,0.0282 -1.99894,0.0887 -2.94442,0.15801 1.86372,-1.56567 3.64501,-3.00602 5.36453,-4.35387 z m -12.77821,10.73166 c 2.5981,0.51016 5.98975,0.96705 10.00689,1.44962 5.63458,0.66595 4.3347,0.5053 9.96927,1.17123 8.28621,0.97933 15.73187,1.98291 20.48017,2.11422 0.0128,0.7401 0.0128,1.47855 0,2.21456 -0.018,0.90487 -0.068,1.8138 -0.11295,2.72115 -0.0449,0.52339 -0.10278,1.20024 -0.14793,1.69541 -1.37527,-0.70508 -3.30704,-1.4502 -5.81101,-2.17944 -5.55342,-1.61732 -12.99098,-2.90607 -21.08215,-3.3908 -4.61488,-0.27648 -9.11561,-0.27265 -13.26719,-0.0226 -2.80945,0.16924 -5.29724,0.44682 -7.47376,0.78498 1.88901,-1.70306 3.79755,-3.39399 5.69812,-5.05357 0.59827,-0.52245 1.1503,-0.98845 1.74302,-1.5048 z M 263.01119,544.456 c 2.89497,0.68651 7.39865,1.22688 13.0941,1.70041 3.89168,0.32354 8.49397,0.63331 12.82584,0.89284 11.88719,0.71216 22.27609,1.1663 27.0285,0.39124 -0.10529,0.82847 -0.21728,1.64258 -0.35608,2.43525 -0.33463,1.91083 -0.78881,3.75175 -1.2941,5.44735 -1.44293,-0.52768 -3.14344,-1.06914 -5.16397,-1.60011 -6.99673,-1.83866 -16.24023,-3.23988 -26.40403,-3.53375 -3.59622,-0.10392 -7.1475,-0.0636 -10.59616,0.10792 -6.32118,0.31422 -11.74529,1.04351 -16.04365,1.92112 0.5311,-0.70324 1.08673,-1.40629 1.67278,-2.11173 1.56775,-1.88688 3.34595,-3.77369 5.23677,-5.65048 z m -10.80945,13.64342 c 4.73315,0.33611 11.69058,0.40366 20.07645,0.56429 3.39525,0.0649 6.68098,0.14119 10.2099,0.24328 12.42676,0.35932 23.49855,1.04168 30.20867,0.943 -0.68429,1.61414 -1.3777,2.86794 -2.17935,3.96009 -0.61302,-0.0705 -1.22117,-0.14206 -1.88851,-0.20313 -7.5688,-0.69266 -17.40144,-0.61717 -28.00671,0.64706 -7.06325,0.84201 -13.75912,2.12601 -19.70521,3.67418 -6.37909,1.66097 -11.20418,3.43735 -14.28792,4.95579 0.16385,-2.05574 0.83979,-4.54263 2.03143,-7.52145 0.88075,-2.2017 2.03887,-4.66627 3.54125,-7.26311 z m 433.41964,12.38191 c 3.1591,0.0767 6.41119,0.66585 9.31463,1.55244 3.87126,1.18212 7.12489,2.89556 10.10963,5.55518 2.98472,2.65963 5.70468,6.26818 7.71453,9.19427 0.93046,1.35461 1.71105,2.55699 2.5457,3.72435 4.43665,8.09705 8.78701,19.2538 8.62483,32.14983 0.0886,10.2433 -2.7604,20.46026 -6.44792,32.27272 -1.5427,4.94181 -3.13034,9.86159 -4.59472,14.96765 -4.74572,15.87236 -7.36487,30.34991 -7.49636,44.04017 -0.0899,11.88672 1.80413,21.439 3.80718,27.61792 0.91915,2.83521 1.84909,4.94306 2.70866,6.41541 -8.82579,-1.57406 -20.36653,-3.00131 -34.3695,-3.80963 -16.03388,-0.92848 -34.50432,-0.95169 -53.98431,0.94803 -7.04926,0.68043 -14.19982,1.62494 -21.3604,2.95941 -7.08765,1.32088 -14.09723,3.00706 -20.98186,5.16143 -12.30349,3.89511 -23.59575,9.10944 -33.66209,14.7294 -1.37282,-9.73446 -6.61164,-23.40462 -19.16359,-37.50941 -6.44316,-7.30664 -13.2252,-13.32697 -20.62052,-20.09646 -3.91377,-3.61872 -7.78772,-7.24055 -11.31601,-10.95487 -2.47791,-2.60851 -4.77643,-5.25244 -6.83687,-8.00297 -8.46689,-11.31234 -12.99213,-23.61359 -13.59578,-35.01144 -0.67479,-10.93977 2.14558,-20.35179 4.37142,-26.48931 0.11684,-0.32372 0.20943,-0.55182 0.32358,-0.86025 1.74957,-3.48191 3.44071,-6.2128 5.95894,-8.91588 2.80303,-3.00867 6.62653,-6.0298 10.29029,-8.26631 3.66375,-2.23648 7.15686,-3.68125 10.87712,-4.64477 0.80011,-0.20723 1.61744,-0.38385 2.44028,-0.55177 9.27843,-0.54156 24.91398,-2.2492 44.24579,-2.30483 9.24876,-0.0326 19.50027,0.42683 30.33913,0.17806 3.50196,-0.0692 7.05876,-0.23239 10.65137,-0.5342 7.09419,-0.59595 14.18313,-1.72703 21.15225,-3.69426 16.97975,-4.99969 35.78302,-16.62357 44.62204,-21.38055 3.24977,-1.74354 6.16991,-3.24377 8.81064,-4.59211 0.16808,-0.0695 0.3476,-0.14462 0.51414,-0.21319 4.19704,-1.72903 7.83242,-3.14724 11.89528,-3.53124 1.0157,-0.096 2.05941,-0.12847 3.1125,-0.10289 z m -384.17541,0.18057 c -1.3018,0.69086 -2.70583,1.41365 -4.08802,2.15185 -6.58762,2.6673 -14.6269,5.91847 -23.75805,9.76107 -2.07483,-0.20161 -4.34202,-0.37927 -6.58853,-0.5342 -6.0614,-0.41803 -11.24333,-0.75053 -14.67172,-1.67031 -2.78492,-0.74716 -4.39556,-1.88984 -5.17641,-3.58894 3.38293,-0.0742 8.55678,-0.64158 15.17573,-1.46715 7.24058,-0.9031 11.16565,-1.43104 19.31653,-2.40266 7.2321,-0.86209 13.96996,-1.57839 19.79047,-2.24966 z m 397.3373,15.9884 c -0.72436,-0.0188 -1.58033,0.0744 -2.58076,0.29844 -5.33538,1.19457 -14.73426,6.13304 -23.09854,11.94804 -8.3643,5.815 -15.69283,12.5036 -19.83556,20.07138 -4.14285,7.56778 -5.09744,16.008 -2.86673,23.09852 2.23072,7.09054 7.64584,12.82437 13.93941,14.5764 6.29357,1.75203 13.46109,-0.478 18.39853,-4.6197 4.93744,-4.14173 7.64712,-10.19671 7.96532,-15.85046 0.31833,-5.65374 -1.752,-10.91182 -1.91098,-16.48748 -0.15896,-5.57565 1.59189,-11.4716 4.45913,-16.32947 2.86737,-4.85787 6.85278,-8.68279 8.20609,-11.86778 1.09956,-2.58779 0.46278,-4.7564 -2.67591,-4.83789 z m -198.41664,33.74993 c -1.92536,-0.0767 -2.62751,1.44732 -3.23783,3.88736 -0.8136,3.25341 -1.46553,8.13462 -0.24578,16.10627 1.21988,7.97164 4.31184,19.03525 10.25023,27.82105 5.93826,8.78581 14.72026,15.2914 23.91355,18.05748 9.1933,2.76607 18.7898,1.78989 26.7627,-1.46466 7.9729,-3.25455 14.31577,-8.78538 16.59284,-14.96764 2.27708,-6.18228 0.48667,-13.01494 -4.06799,-18.46378 -4.55465,-5.44884 -11.87563,-9.51653 -20.74096,-12.4446 -8.86534,-2.92808 -19.27736,-4.71815 -27.8186,-8.05314 -8.54123,-3.33499 -15.21052,-8.21584 -19.03312,-9.84383 -0.95562,-0.407 -1.73313,-0.6092 -2.37504,-0.63451 z m -114.01039,90.78394 c 5.4783,12.34623 12.12987,23.44258 16.39471,30.77297 4.81237,8.30852 8.59183,14.82386 11.44649,19.20362 -0.50748,4.32377 -0.91684,8.7422 -1.03331,13.34999 -0.29457,9.18692 1.02573,18.53217 4.79517,27.19405 3.5487,7.86844 8.96383,14.1724 15.16327,18.76474 -0.47344,0.0144 -0.9501,0.0335 -1.41943,0.04 -2.9674,0.0418 -5.64177,-0.37783 -8.35915,-1.84086 -2.71739,-1.46304 -5.47728,-3.9708 -8.36159,-7.14774 -2.88432,-3.17696 -5.89268,-7.02062 -7.60668,-11.8703 -1.71413,-4.84966 -2.13273,-10.70139 -1.92369,-16.01095 0.20917,-5.30961 1.04512,-10.07471 0.75234,-13.04152 -0.29263,-2.96673 -1.71361,-4.13762 -3.21766,-3.13497 -1.50418,1.00265 -3.09337,4.182 -5.64292,9.23941 -2.54969,5.05742 -6.06398,11.9987 -9.36484,16.21912 -3.30088,4.22044 -6.39155,5.72321 -7.64687,4.97081 -1.25533,-0.75237 -0.66992,-3.75994 1.21141,-9.06886 1.88118,-5.3089 5.05776,-12.91654 6.64605,-21.36048 1.58828,-8.44394 1.58854,-17.72056 1.25403,-25.11996 -0.22677,-5.01645 -0.61598,-9.08179 -1.09853,-12.18629 -0.20135,-5.82015 -1.20692,-12.05726 -1.9888,-18.97289 z m 350.591,60.7233 c -1.37257,0.016 -2.06712,3.97206 -4.49187,10.85704 -2.32676,6.6071 -6.69677,16.77418 -15.51691,25.44601 -8.29854,8.32907 -20.01353,14.5496 -35.00884,18.55155 -13.15458,3.45816 -28.51932,4.44361 -44.66467,7.4487 -1.59483,0.29607 -3.17991,0.60795 -4.75522,0.93548 -15.99138,3.32486 -30.91017,7.97559 -44.82017,10.34041 -7.33419,1.20175 -14.09491,1.8466 -20.42751,1.80324 0.93725,-0.43971 1.88542,-0.89969 2.84912,-1.40448 2.78327,-1.45791 5.42438,-3.06888 7.65433,-4.66985 4.5115,-3.23898 6.8488,-6.07801 6.12958,-7.45624 -0.26966,-0.51663 -0.95267,-0.79772 -1.97891,-0.8502 -1.71014,-0.0874 -4.37064,0.46109 -7.6443,1.62267 -2.58923,0.9187 -5.42026,2.16982 -8.20609,3.62905 -5.01717,2.62801 -9.12587,5.52777 -11.55176,7.93776 -1.07582,-0.21062 -2.14341,-0.44244 -3.1952,-0.71227 -0.29444,-0.0719 -0.57669,-0.15961 -0.86778,-0.23574 3.81784,-2.42362 8.30868,-5.43531 13.11926,-8.62245 4.67253,-3.09556 10.55069,-6.97462 14.15012,-9.48519 5.66577,-3.95182 8.90758,-6.70388 8.33142,-7.96536 -0.20456,-0.44806 -0.94239,-0.66681 -2.13673,-0.62699 -1.99058,0.0664 -5.25255,0.85201 -9.44253,2.49795 -4.822,1.89432 -10.28747,4.714 -15.71761,8.31145 -6.53986,4.33274 -12.00481,9.11873 -15.71749,13.30234 -0.0218,0.0253 -0.041,0.0476 -0.0629,0.0727 -9.86744,-4.09056 -17.28061,-10.2621 -22.00258,-14.86983 -6.23385,-6.08307 -8.85827,-10.11592 -10.26012,-9.46514 -0.98232,0.45597 -0.89077,5.71182 4.12809,14.2278 4.78413,8.11762 15.03294,19.99789 32.37313,26.25356 12.90648,4.53149 27.43695,5.45501 42.92407,3.38828 15.51499,-1.98425 28.86706,-5.80492 43.60376,-8.98861 0.70535,1.87894 2.65395,4.84889 5.33204,9.15164 3.95948,6.36179 9.39284,15.66105 12.82572,27.5878 3.47756,12.04911 4.62053,25.931 1.90867,39.96472 -0.018,0.0957 -0.0346,0.19271 -0.0527,0.28842 -2.58602,13.86088 -10.26974,30.27322 -14.92507,43.08964 -9.29795,25.29129 -10.57395,41.68857 -8.00295,42.47767 3.02518,0.9286 9.57647,-13.7233 21.27271,-36.70429 6.12457,-11.9159 14.78742,-27.97372 18.38607,-45.57758 0.0231,-0.11658 0.0462,-0.23432 0.0707,-0.3511 3.32399,-17.33704 0.98759,-34.20519 -4.7551,-48.12067 -5.68877,-13.76131 -13.98885,-23.09114 -20.37988,-28.32265 -2.59489,-2.12418 -4.84987,-3.58824 -6.68381,-4.5219 0.59903,-0.11853 1.2005,-0.24555 1.79824,-0.35865 14.34339,-2.70573 27.62058,-3.91131 41.98362,-7.86 2.57215,2.12487 5.13879,5.08924 7.65945,9.10649 2.83732,4.52201 5.61416,10.37318 7.89008,17.82171 2.27604,7.44854 4.04975,16.49141 4.43407,25.80213 0.38446,9.31073 -0.62046,18.88747 -2.60066,26.60217 -1.98032,7.71471 -4.93449,13.56599 -5.37711,16.07869 -0.44276,2.51267 1.62437,1.68576 4.25353,-0.97311 2.62904,-2.65885 5.82399,-7.15542 8.83813,-13.42021 3.01401,-6.26479 5.85376,-14.30614 7.36089,-21.72414 1.50713,-7.41802 1.68395,-14.21809 1.32916,-20.66076 -0.35466,-6.4427 -1.24055,-12.53328 -2.15675,-17.64618 -0.91619,-5.1129 -1.86424,-9.25199 -1.86346,-11.58688 7.6e-4,-2.33489 0.94688,-2.86574 2.42269,-2.68856 1.47579,0.17719 3.49014,1.0664 5.05609,3.37073 1.56594,2.30435 2.69003,6.02821 3.60648,10.81693 0.91646,4.78872 1.62411,10.64051 1.97878,16.25675 0.35479,5.61622 0.3544,10.99466 -0.14793,15.81282 -0.50246,4.81817 -1.50546,9.0732 -2.09666,11.94052 -0.0206,0.0998 -0.0309,0.16695 -0.0501,0.26334 -1.3456,3.48138 -2.8395,6.94647 -4.50433,10.37804 -2.3021,4.74513 -4.86861,9.3287 -7.67948,13.72115 -6.44432,10.13359 -14.59365,19.69846 -22.02004,28.29006 -6.57594,7.57703 -11.82644,13.55829 -16.54264,19.40927 -0.3042,0.31878 -0.67145,0.69029 -0.96807,1.0032 -9.19471,9.69619 -14.715,16.55254 -20.23195,23.40698 -5.51695,6.8545 -11.03417,13.709 -17.97222,19.477 -6.93804,5.7681 -15.30041,10.4514 -22.48912,15.2159 -7.18857,4.7646 -13.2067,9.6124 -8.94341,10.867 4.26331,1.2548 18.80649,-1.0844 32.09962,-5.9338 13.29325,-4.8492 25.33016,-12.2055 34.86104,-21.235 9.53088,-9.0296 16.55458,-19.7307 20.9843,-23.3243 4.42971,-3.59352 6.26904,-0.084 7.10511,7.1051 0.83594,7.189 0.66798,18.0581 0.83516,28.8418 0.1672,10.7838 0.66914,21.481 1.92357,27.2518 1.14168,5.2521 2.89845,6.3945 3.96269,5.5526 0.30767,1.2367 0.68314,1.901 1.12602,1.9488 0.53701,0.058 1.16402,-0.7402 1.8659,-2.3225 0.51621,-1.0108 1.08878,-2.3544 1.71298,-4.0379 1.42212,-6.8711 3.10055,-19.1934 7.07506,-35.0364 4.0355,-16.0862 10.27822,-34.87818 20.52537,-54.41069 5.00177,-9.4951 11.04212,-19.19507 16.82603,-29.51394 0.89745,-1.59085 1.78759,-3.19759 2.66346,-4.82286 4.74509,-8.80538 9.00402,-17.97533 12.06092,-27.76336 6.66954,-21.6047 5.98179,-42.83668 1.31914,-60.35462 -4.86053,-18.22917 -13.59361,-31.30395 -20.28704,-38.90884 -0.57887,-0.65773 -1.12113,-1.22658 -1.67034,-1.81078 -3.83069,-5.59692 -7.66368,-9.58989 -10.87955,-11.18308 2.48368,-6.51067 3.42671,-12.4439 3.62652,-16.8386 0.37366,-8.22079 -1.46156,-12.17323 -2.49293,-12.16121 z m -255.46068,89.3845 c -0.16012,-0.0201 -0.29932,-0.002 -0.41887,0.0552 -2.16176,1.0358 1.13205,11.894 6.78409,30.79051 6.1581,20.58778 12.50521,42.75535 18.49394,71.67062 8.39446,40.5315 12.29757,80.7857 15.6172,96.457 0.31536,1.4915 0.6301,2.775 0.94547,3.8449 0.76082,2.5803 1.52434,3.8947 2.2998,3.8949 0.77174,0 1.54796,-1.3144 2.27733,-3.9226 0.30201,-1.0801 0.59402,-2.3822 0.87279,-3.8949 1.4645,-7.9477 2.52901,-21.9388 1.95361,-39.7541 -0.58568,-18.1368 -2.81317,-38.66967 -7.26305,-60.09124 -5.99092,-28.8399 -14.85946,-53.71564 -23.97635,-72.5785 -8.29983,-17.1726 -15.18343,-26.1687 -17.58596,-26.47177 z m 114.71008,19.48954 c -1.66341,-0.0388 -5.44286,2.59648 -10.61376,8.2613 -5.90294,6.46694 -13.32253,16.64964 -20.00363,30.15347 -5.89627,11.93278 -10.67976,25.32056 -14.08489,39.8067 -0.45509,1.93628 -0.88269,3.87476 -1.28152,5.81602 -3.42043,16.67098 -5.02708,34.74836 -6.12446,47.6115 -1.88761,22.063 -2.52401,35.3544 0.19813,35.942 2.51463,0.5426 8.11736,-11.7227 13.26963,-33.7951 3.15976,-13.5218 5.74411,-30.03975 9.30463,-46.22215 0.39934,-1.8175 0.81205,-3.63431 1.23901,-5.44733 3.22049,-13.67652 6.96592,-26.00017 11.35865,-37.65235 9.74995,-25.90685 19.791,-42.40963 17.32016,-44.29349 -0.14909,-0.11363 -0.34426,-0.17502 -0.58195,-0.18057 z"
       style="fill:#F2668B;stroke:#F2BBC9;stroke-width:5px;stroke-linecap:butt;stroke-linejoin:miter;stroke-opacity:1" />
  </g>
</svg>
