<?xml version="1.0" encoding="utf-8"?>
<!-- Generator: Adobe Illustrator 26.5.0, SVG Export Plug-In . SVG Version: 6.00 Build 0)  -->
<svg version="1.1" id="Layer_1" xmlns="http://www.w3.org/2000/svg" xmlns:xlink="http://www.w3.org/1999/xlink" x="0px" y="0px"
	 viewBox="0 0 1000 1000" style="enable-background:new 0 0 1000 1000;" xml:space="preserve">
<style type="text/css">
	.st0{fill:#FEFEFE;}
	.st1{fill:#FED428;}
	.st2{fill:#FE2C10;}
	.st3{fill:#FDFDFD;}
	.st4{fill:#FCFCFC;}
</style>
<g id="NAeQb5_00000088129047663260482790000009141214543952036743_">
	<g>
		<path d="M773.15,162.22c2.57,2.4,8.17,3.18,9.42,6.09c7.34,7.91,14.35,16.95,14.97,28.24c-0.24,9.08,6.47,5.42,12.93,7.67
			c32.8,8.15,40.61,56.88,12.52,75.46c-12.48,8.91-28.11,11.95-42.88,7.79c-11.86-7.26-17.2,3.93-24.97,10.49
			c-21.73,20.23-42.19,41.76-63.82,62.03c-29.31,29.16-15.95,7.05,4.42,62.01c1.41,3.4,2.13,8.52,6.67,8.64
			c34.54,6.95,68.76,16.43,101.35,29.84c15.39,6.17,30.65,12.69,46.15,18.51c1.81,1.3,5.43,1.14,5.1,4.06
			c-0.32,2.88-3.74,2.39-5.91,3c-45.41,11.63-92.24,17.3-138.18,24.68c-2.82,15.32-3.65,31.22-8.5,46.73
			c-3.72,12.27-8.14,24.28-13.7,35.86c-2.33,3.5-3.96,7.4-6.18,10.96c-2.43,2.93-0.7,4.95,1.42,7.02
			c24.48,24.28,48.97,48.4,73.62,72.51c9.32,12.11,18.16-2.04,33.69,0.48c12.99,1.58,25.22,7.42,33.81,17.44
			c20.64,22.6,6.37,64.98-24.74,68.67c-7.39,0.22-7.45,0.21-8.75,7.69c-6.53,35.51-36.33,46.93-66.73,28.65
			c-22.92-8.56-26.8-37.13-16.49-56.81c4.85-8.92,4.85-8.92-2.28-16.03c-5.51-6.1-12.06-11.05-17.87-16.82
			c-17.79-18.05-36.02-35.56-53.73-53.59c-2.04-3.13-23,14.78-28.13,16.62c-16.74,10.5-21.92,5.61-12.61,18.95
			c27.47,49.39,0.96,120.76-53.66,137.56c-34.73,8.4-73.48,5.79-104.39-13.03c-41.14-30.93-54.16-79.23-27.71-124.59
			c5.44-7.86,5.44-7.86-3.11-12.07c-6.3-3.03-12.42-6.36-18.35-10.06c-29.06-15.22-21.91-27.56-40.02-7.32
			c-21.7,20.75-43.2,41.7-64.21,63.21c-19.43,15.7,6.13,18.78-0.93,50.66c-12.65,46.19-82.66,45.06-87.68-4.86
			c0.39-8.08-3-6.39-9.35-7.3c-31.67-4.84-44.41-48.86-21.99-70.83c14.04-14.58,35.97-19,54.57-11.27c4.61,2.16,6.09,0.52,8.74-3.18
			c2.01-1.59,4.13-3.04,5.84-4.97c26.88-24.28,51.64-51.17,78.51-75.52c5-4.72-5.21-15.13-6.62-20.78
			c-3.95-9.25-7.09-18.83-10.09-28.44c-3.23-13.21-5.77-26.55-6.69-40.11c-0.06-1.62,0.46-3.56-2.14-3.76
			c-46.54-5.11-92.68-13.17-138.65-22.48c-1.75-1.83-0.42-2.97,0.91-4.11c18.44-9.4,36.59-19.35,55.73-27.35
			c16.17-6,32.8-10.66,49.21-15.93c13.84-3.42,27.74-6.61,41.61-9.91c5.39,0.3,6.37-5.32,7.28-9.45
			c6.86-15.04,13.56-30.09,22.82-43.74c0.48-1.63-0.47-2.57-1.61-3.44c-4.66-3.54-8.4-8.04-12.66-12
			c-16.69-16.54-34.4-31.88-50.78-48.76c-6.95-7.53-15.01-13.98-21.95-21.47c-3.93-4.78-8.29-6.07-13.74-2.81
			c-22.38,8.76-49.85-2.54-59.67-24.57c-12.24-27.19,8.88-60.25,38.93-59.73c2.48-54.14,71.79-60.9,88.36-11.32
			c3.72,13.46-1.09,27.44-7.31,39.34c-1.5,2.07-0.29,3.46,1.15,4.87c14.27,13.62,27.27,28.71,42.1,41.66
			c11.79,10.04,22.22,21.39,33.57,31.81c5.2,3.63,11.61,17.18,18.48,10.57c36.98-25.88,82.43-39.51,127.53-38.12
			c40.17,1.69,79.76,14.76,112.8,37.76c5.52,6.28,9.49-2.47,13.68-5.73c6.71-6.58,13.34-13.23,19.94-19.93
			c21.19-20.27,42.05-40.92,63.25-61.18c2.59-2.24,3.22-4.56,1.05-7.52c-3.59-5.28-4.5-11.87-6.96-17.69
			C701.69,174.85,740.76,149.28,773.15,162.22z"/>
		<path class="st0" d="M462.75,463.08c72.94-0.52,146.51-0.73,218.82,9.77c9.96,2.18,15.42,8.2,15.63,18.27
			c9.84,135.72-141.04,245.27-266.67,192.12c-78.49-26.69-134.29-102.6-131-186.45c0.13-10.29,10.1-19.43,22.66-21.92
			C368.53,465.87,415.78,465.17,462.75,463.08z"/>
		<path class="st1" d="M508.05,299.45c66.19,1.99,130.17,40.57,161.22,98.96c-113.91-17.21-227.69-18.45-342.19,0.44
			C363.32,334.3,435.1,294.86,508.05,299.45z"/>
		<path class="st1" d="M689.91,441.85c43.59,7.92,87.13,19.9,127.28,38.59c-35.07,6.86-68.99,11.65-104.24,15.78
			c-2.3,0.27-3.47,0.27-3.52-2.57c-0.34-20.49-11.74-31.65-34.23-34.18c-111.1-11.07-223.77-12.87-334.77,0.16
			c-21.53,1.71-51.04,9.28-52.48,35.48c-0.16,3.35-1.33,3.81-4.23,3.55c-34.44-3.44-68.47-8.69-102.38-15.72
			C335.63,415.01,525.97,414.66,689.91,441.85z"/>
		<path class="st0" d="M756.59,170.89c20.85-1.21,30.62,22.6,28.1,42.76c1.99,10.04,36.95-11.18,42.34,30.22
			c2.01,27.42-33.88,40.49-55.37,25.67c-3-1.62-4.89-1.58-7.5,0.97c-29.72,29.09-59.59,58.04-89.42,87.02
			c-9.21,10.74-10.68,12.92-19.19-0.24c-6.21-6.68-12.46-13.33-19.53-19.09c-2.74-2.23-2.67-3.18-0.15-5.63
			c32.12-31.27,64.06-62.73,96.17-94.01c2.93-2.86,3.69-4.76,1.05-8.4C713.6,206.25,721.65,170.03,756.59,170.89z"/>
		<path class="st0" d="M332.74,368.38c-32.07-31.28-64.24-62.03-96.36-93.2c-2.59-2.51-4.52-2.86-7.9-1.06
			c-27.93,17.8-66.31-5.85-52.48-36.97c9.64-26.67,40.81-9.4,39.84-20.09c-9.03-57.53,73.94-53.85,60.2,0.15
			c-2.34,6.65-5.39,12.96-9.54,18.69c-1.59,2.2-1.81,3.7,0.52,5.94c31.66,30.46,62.92,61.34,94.58,91.8
			c1.73,1.63,2.1,2.63,0.02,4.36C350.88,346.91,341.53,357.16,332.74,368.38z"/>
		<path class="st0" d="M196.91,698.82c12.94-1.37,25.9,11.39,30.08,5.56c30.2-29.58,60.77-58.78,90.96-88.37
			c1.93-1.92,2.74-2.09,4.46,0.45c7.06,10.39,15.04,20.07,24.3,28.59c2.51,2.31,2.39,3.55-0.09,5.95
			c-29.12,28.25-58.04,56.7-87.18,84.92c-3.19,3.09-3.39,5.16-0.94,8.78c40.43,53.2-45.77,87.62-51.47,28.36
			c-0.97-11.78,3.9-16.97-11.77-14.96C152.51,759.77,155.55,698.87,196.91,698.82z"/>
		<path class="st0" d="M788.64,757.49c-16.89-2.06-5.72,12.99-12.55,27.32c-8.68,26.25-49.08,21.8-57.22-0.34
			c-4.04-9.58-2.66-18.86,1.32-27.91c1-5.35,12.27-16.17,7.43-19.91c-18.75-18.19-37.33-36.56-55.91-54.93
			c-9.28-9.17-18.41-18.49-27.76-27.6c-1.75-1.7-0.95-2.35,0.31-3.53c9.64-9.08,18.62-18.77,26.27-29.61
			c1.49-2.11,2.22-1.54,3.76-0.06c28.83,27.24,56.38,55.78,85.04,83.18c1.76,1.73,3.09,2.06,5.2,0.8
			C816.98,673.46,849.83,754.46,788.64,757.49z"/>
		<path class="st0" d="M588.94,759.6c-5.79,64.24-85.09,84.61-135.84,58.08c-24.81-10.96-36.54-34.37-46.53-58.23
			C467.56,776.73,528.03,779.07,588.94,759.6z"/>
		<path class="st2" d="M431.59,415.88c-38.84,2.12-77.45,7.08-115.9,14.27c-7.36,1.85,3.58-13.76,3.31-16.89
			c0.37-1.44,1.33-1.21,2.31-1.39c29.03-5.37,58.14-9.76,87.57-11.51c66.71-6,134.8-4.72,201.14,2.08
			c14.29,1.12,28.25,3.58,42.35,5.16c21.2,4.72,23.8-3.32,31.5,20.4C600.9,415.32,515.88,410.02,431.59,415.88z"/>
		<path class="st0" d="M502.13,762.88c-33.64,0.46-21.77,2.48-18.91-26.78c0.36-2.29,1.61-2.24,3.21-2.19
			c10.46,0.32,20.93,0.55,31.38-0.22c2.28-0.17,3.25,0.49,3.78,2.92c6.43,31.04,13.72,25.06-19.45,26.94
			C502.13,763.33,502.13,763.11,502.13,762.88z"/>
		<path class="st0" d="M467.21,761.71c-11.14-1.01-22.63-3.08-34.14-4.95c-2.44-0.4-1.52-1.83-1.07-3c2.94-7.67,6.07-15.27,8.86-23
			c0.9-2.5,2.47-2.02,4.06-1.63c32.5,9.71,32.97-8.06,25.92,29.79C470.51,760.8,470.12,762.34,467.21,761.71z"/>
		<path class="st0" d="M538.67,760.67c-3.84,2.87-6.66-21.31-8.68-24.82c-0.66-2.4-0.15-3.36,2.37-3.7c4.4,0.48,19.68-5.76,20.5-0.8
			C560.53,760.65,571.3,755.29,538.67,760.67z"/>
		<path class="st0" d="M586.26,718.48c3.16,8.77,4.12,17.88,4.29,27.13c-0.27,6.09-11.31,5.55-15.76,7.98
			c-1.9,0.56-3.35,0.6-4.15-2.09C561.64,721.15,556.31,730.64,586.26,718.48z"/>
		<path class="st0" d="M407.95,739.91c3.7-26.85,3.75-21.45,23.4-14.59c2.51,0.8,2.78,1.69,1.85,3.97
			c-3.04,7.43-5.95,14.92-8.76,22.44c-1.04,4.13-3.93,2-6.95,1.66C408.62,751.1,407.96,750.22,407.95,739.91z"/>
		<path class="st3" d="M446.08,718.24c7.36-24.06,11.01-12.37,30.19-11.34c5.26-0.14,3.82,3.79,2.99,7.24
			c-1.5,9.83-1.51,9.95-11.22,8.36C460.8,721.31,453.46,720.47,446.08,718.24z"/>
		<path class="st4" d="M501.25,724.6c-3.8-0.6-12.8,1.61-14.18-1.09c-0.71-1.74,0.15-17.07,3.82-15.17
			c4.42,1.04,23.19-2.64,23.01,2.5C516.6,724.1,517.08,724.76,501.25,724.6z"/>
		<path class="st3" d="M573.06,694.95c1.5-0.31,2.09,0.83,2.81,1.77c8.09,10.45,7.95,11.04-4.11,15.98
			c-6.83,1.67-14.05,9.16-16-1.54c-1.05-3.18-4.17-6.78-2.66-9.37C557.81,698.38,567.24,697.7,573.06,694.95z"/>
		<path class="st3" d="M526.11,723.44c-2.56,0.76-2.18-3.31-2.52-4.91c-4.53-14.17,0.57-11.56,12.22-13.32
			c8.54-1.27,8.54-1.27,11.4,7.07c2.44,7.13,2.47,7.26-5.12,8.75C536.9,722.05,531.62,722.63,526.11,723.44z"/>
		<path class="st3" d="M444.37,701.51c-8.6,20.15-4.35,13.48-22.8,6.87c-2.13-0.9-2.81-1.6-1.23-3.98c6.2-9.34,6.08-9.42,16.94-6.09
			C444.26,700.45,444.26,700.45,444.37,701.51z"/>
		<path d="M589.59,628.03c-84.48,0.64-85.96-128.91-1.34-130.43C674.51,496.96,675.7,627.19,589.59,628.03z"/>
		<path d="M408.52,628.04c-85.47-0.07-85.28-130.83,0.88-130.4C493.77,498.77,493.9,627.82,408.52,628.04z"/>
		<path d="M524.6,641.11c-0.85,33.79-50.86,33.59-51.26-0.29C473.85,607.51,524.29,607.81,524.6,641.11z"/>
	</g>
</g>
</svg>
